<svg width="892" height="552" viewBox="0 0 892 552" fill="none" xmlns="http://www.w3.org/2000/svg">
<rect width="892" height="552" fill="#E4E3E3"/>
<g filter="url(#filter0_d_1_2)">
<rect x="5" y="10" width="879" height="43" rx="5" fill="url(#paint0_linear_1_2)" shape-rendering="crispEdges"/>
</g>
<g filter="url(#filter1_d_1_2)">
<rect x="5" y="128" width="394" height="414" rx="5" fill="url(#paint1_linear_1_2)" shape-rendering="crispEdges"/>
</g>
<rect x="5" y="68" width="394" height="51" rx="5" fill="#F8EEEE"/>
<rect x="662" y="68" width="222" height="183" rx="5" fill="#F8EEEE"/>
<path d="M80.2642 40V25.4545H86.0028C87.1013 25.4545 88.0388 25.651 88.8153 26.044C89.5966 26.4323 90.1908 26.9839 90.598 27.6989C91.0099 28.4091 91.2159 29.2448 91.2159 30.206C91.2159 31.1719 91.0076 32.0028 90.5909 32.6989C90.1742 33.3902 89.5705 33.9205 88.7798 34.2898C87.9938 34.6591 87.0421 34.8438 85.9247 34.8438H82.0824V32.3722H85.4276C86.0147 32.3722 86.5024 32.2917 86.8906 32.1307C87.2789 31.9697 87.5677 31.7282 87.7571 31.4062C87.9512 31.0843 88.0483 30.6842 88.0483 30.206C88.0483 29.723 87.9512 29.3158 87.7571 28.9844C87.5677 28.6529 87.2765 28.402 86.8835 28.2315C86.4953 28.0563 86.0052 27.9688 85.4134 27.9688H83.3395V40H80.2642ZM88.1193 33.3807L91.7344 40H88.3395L84.8026 33.3807H88.1193ZM98.1282 40.2131C97.006 40.2131 96.0401 39.9858 95.2305 39.5312C94.4255 39.072 93.8053 38.4233 93.3697 37.5852C92.9341 36.7424 92.7163 35.7457 92.7163 34.5952C92.7163 33.473 92.9341 32.4882 93.3697 31.6406C93.8053 30.7931 94.4184 30.1326 95.2092 29.6591C96.0046 29.1856 96.9374 28.9489 98.0075 28.9489C98.7272 28.9489 99.3971 29.0649 100.017 29.2969C100.642 29.5241 101.187 29.8674 101.651 30.3267C102.12 30.786 102.484 31.3636 102.745 32.0597C103.005 32.7509 103.135 33.5606 103.135 34.4886V35.3196H93.9237V33.4446H100.287C100.287 33.009 100.193 32.6231 100.003 32.2869C99.8138 31.9508 99.551 31.688 99.2148 31.4986C98.8834 31.3045 98.4975 31.2074 98.0572 31.2074C97.5979 31.2074 97.1907 31.3139 96.8356 31.527C96.4852 31.7353 96.2106 32.017 96.0117 32.3722C95.8129 32.7225 95.7111 33.1132 95.7063 33.544V35.3267C95.7063 35.8665 95.8058 36.3329 96.0046 36.7259C96.2082 37.1188 96.4947 37.4219 96.864 37.6349C97.2333 37.848 97.6713 37.9545 98.1779 37.9545C98.5141 37.9545 98.8219 37.9072 99.1012 37.8125C99.3806 37.7178 99.6197 37.5758 99.8185 37.3864C100.017 37.197 100.169 36.965 100.273 36.6903L103.071 36.875C102.929 37.5473 102.638 38.1345 102.198 38.6364C101.762 39.1335 101.199 39.5218 100.507 39.8011C99.8209 40.0758 99.0278 40.2131 98.1282 40.2131ZM105.11 44.0909V29.0909H108.093V30.9233H108.228C108.36 30.6297 108.552 30.3314 108.803 30.0284C109.059 29.7206 109.39 29.465 109.797 29.2614C110.209 29.053 110.721 28.9489 111.331 28.9489C112.127 28.9489 112.861 29.1572 113.533 29.5739C114.205 29.9858 114.743 30.6084 115.145 31.4418C115.548 32.2704 115.749 33.3097 115.749 34.5597C115.749 35.7765 115.552 36.804 115.159 37.642C114.771 38.4754 114.241 39.1075 113.569 39.5384C112.901 39.9645 112.153 40.1776 111.324 40.1776C110.737 40.1776 110.238 40.0805 109.826 39.8864C109.418 39.6922 109.085 39.4484 108.824 39.1548C108.564 38.8565 108.365 38.5559 108.228 38.2528H108.135V44.0909H105.11ZM108.071 34.5455C108.071 35.1941 108.161 35.7599 108.341 36.2429C108.521 36.7259 108.782 37.1023 109.123 37.3722C109.463 37.6373 109.878 37.7699 110.365 37.7699C110.858 37.7699 111.275 37.6349 111.615 37.3651C111.956 37.0904 112.214 36.7116 112.39 36.2287C112.569 35.741 112.659 35.1799 112.659 34.5455C112.659 33.9157 112.572 33.3617 112.397 32.8835C112.221 32.4053 111.963 32.0312 111.623 31.7614C111.282 31.4915 110.863 31.3565 110.365 31.3565C109.873 31.3565 109.456 31.4867 109.115 31.7472C108.779 32.0076 108.521 32.3769 108.341 32.8551C108.161 33.3333 108.071 33.8968 108.071 34.5455ZM122.695 40.2131C121.592 40.2131 120.638 39.9787 119.833 39.5099C119.033 39.0365 118.415 38.3783 117.979 37.5355C117.543 36.688 117.326 35.7055 117.326 34.5881C117.326 33.4612 117.543 32.4763 117.979 31.6335C118.415 30.786 119.033 30.1278 119.833 29.6591C120.638 29.1856 121.592 28.9489 122.695 28.9489C123.798 28.9489 124.75 29.1856 125.55 29.6591C126.355 30.1278 126.975 30.786 127.411 31.6335C127.846 32.4763 128.064 33.4612 128.064 34.5881C128.064 35.7055 127.846 36.688 127.411 37.5355C126.975 38.3783 126.355 39.0365 125.55 39.5099C124.75 39.9787 123.798 40.2131 122.695 40.2131ZM122.709 37.8693C123.211 37.8693 123.63 37.7273 123.966 37.4432C124.302 37.1544 124.556 36.7614 124.726 36.2642C124.901 35.767 124.989 35.2012 124.989 34.5668C124.989 33.9323 124.901 33.3665 124.726 32.8693C124.556 32.3722 124.302 31.9792 123.966 31.6903C123.63 31.4015 123.211 31.2571 122.709 31.2571C122.203 31.2571 121.776 31.4015 121.431 31.6903C121.09 31.9792 120.832 32.3722 120.657 32.8693C120.486 33.3665 120.401 33.9323 120.401 34.5668C120.401 35.2012 120.486 35.767 120.657 36.2642C120.832 36.7614 121.09 37.1544 121.431 37.4432C121.776 37.7273 122.203 37.8693 122.709 37.8693ZM130.032 40V29.0909H132.965V30.9943H133.078C133.277 30.3172 133.611 29.8059 134.08 29.4602C134.549 29.1098 135.088 28.9347 135.699 28.9347C135.851 28.9347 136.014 28.9441 136.189 28.9631C136.364 28.982 136.518 29.008 136.651 29.0412V31.7259C136.509 31.6832 136.312 31.6454 136.061 31.6122C135.81 31.5791 135.581 31.5625 135.373 31.5625C134.927 31.5625 134.53 31.6596 134.179 31.8537C133.834 32.0431 133.559 32.3082 133.355 32.6491C133.157 32.9901 133.057 33.383 133.057 33.8281V40H130.032ZM144.565 29.0909V31.3636H137.995V29.0909H144.565ZM139.487 26.4773H142.512V36.6477C142.512 36.9271 142.555 37.1449 142.64 37.3011C142.725 37.4527 142.844 37.5592 142.995 37.6207C143.151 37.6823 143.331 37.7131 143.535 37.7131C143.677 37.7131 143.819 37.7012 143.961 37.6776C144.103 37.6491 144.212 37.6278 144.288 37.6136L144.763 39.8651C144.612 39.9124 144.399 39.9669 144.124 40.0284C143.85 40.0947 143.516 40.1349 143.123 40.1491C142.394 40.1776 141.754 40.0805 141.205 39.858C140.661 39.6354 140.237 39.2898 139.934 38.821C139.631 38.3523 139.482 37.7604 139.487 37.0455V26.4773ZM155.184 40.1776C154.356 40.1776 153.605 39.9645 152.933 39.5384C152.265 39.1075 151.735 38.4754 151.342 37.642C150.954 36.804 150.76 35.7765 150.76 34.5597C150.76 33.3097 150.961 32.2704 151.363 31.4418C151.766 30.6084 152.301 29.9858 152.968 29.5739C153.641 29.1572 154.377 28.9489 155.177 28.9489C155.788 28.9489 156.297 29.053 156.704 29.2614C157.116 29.465 157.448 29.7206 157.699 30.0284C157.954 30.3314 158.148 30.6297 158.281 30.9233H158.373V25.4545H161.392V40H158.409V38.2528H158.281C158.139 38.5559 157.938 38.8565 157.677 39.1548C157.422 39.4484 157.088 39.6922 156.676 39.8864C156.269 40.0805 155.771 40.1776 155.184 40.1776ZM156.143 37.7699C156.631 37.7699 157.043 37.6373 157.379 37.3722C157.72 37.1023 157.98 36.7259 158.16 36.2429C158.345 35.7599 158.437 35.1941 158.437 34.5455C158.437 33.8968 158.347 33.3333 158.167 32.8551C157.987 32.3769 157.727 32.0076 157.386 31.7472C157.045 31.4867 156.631 31.3565 156.143 31.3565C155.646 31.3565 155.227 31.4915 154.886 31.7614C154.545 32.0312 154.287 32.4053 154.112 32.8835C153.937 33.3617 153.849 33.9157 153.849 34.5455C153.849 35.1799 153.937 35.741 154.112 36.2287C154.292 36.7116 154.55 37.0904 154.886 37.3651C155.227 37.6349 155.646 37.7699 156.143 37.7699ZM168.851 40.2131C167.729 40.2131 166.763 39.9858 165.953 39.5312C165.148 39.072 164.528 38.4233 164.092 37.5852C163.657 36.7424 163.439 35.7457 163.439 34.5952C163.439 33.473 163.657 32.4882 164.092 31.6406C164.528 30.7931 165.141 30.1326 165.932 29.6591C166.727 29.1856 167.66 28.9489 168.73 28.9489C169.45 28.9489 170.12 29.0649 170.74 29.2969C171.365 29.5241 171.91 29.8674 172.374 30.3267C172.842 30.786 173.207 31.3636 173.467 32.0597C173.728 32.7509 173.858 33.5606 173.858 34.4886V35.3196H164.646V33.4446H171.01C171.01 33.009 170.915 32.6231 170.726 32.2869C170.536 31.9508 170.274 31.688 169.938 31.4986C169.606 31.3045 169.22 31.2074 168.78 31.2074C168.321 31.2074 167.913 31.3139 167.558 31.527C167.208 31.7353 166.933 32.017 166.734 32.3722C166.536 32.7225 166.434 33.1132 166.429 33.544V35.3267C166.429 35.8665 166.528 36.3329 166.727 36.7259C166.931 37.1188 167.217 37.4219 167.587 37.6349C167.956 37.848 168.394 37.9545 168.901 37.9545C169.237 37.9545 169.545 37.9072 169.824 37.8125C170.103 37.7178 170.342 37.5758 170.541 37.3864C170.74 37.197 170.892 36.965 170.996 36.6903L173.794 36.875C173.652 37.5473 173.361 38.1345 172.92 38.6364C172.485 39.1335 171.921 39.5218 171.23 39.8011C170.544 40.0758 169.75 40.2131 168.851 40.2131ZM180.518 40V25.4545H183.593V37.4645H189.829V40H180.518ZM198.805 35.3551V29.0909H201.83V40H198.925V38.0185H198.812C198.566 38.6577 198.156 39.1714 197.583 39.5597C197.015 39.9479 196.321 40.142 195.502 40.142C194.773 40.142 194.131 39.9763 193.577 39.6449C193.023 39.3134 192.59 38.8423 192.278 38.2315C191.97 37.6207 191.814 36.8892 191.809 36.0369V29.0909H194.835V35.4972C194.839 36.1411 195.012 36.6501 195.353 37.0241C195.694 37.3982 196.151 37.5852 196.724 37.5852C197.088 37.5852 197.429 37.5024 197.746 37.3366C198.064 37.1662 198.319 36.9152 198.513 36.5838C198.712 36.2524 198.809 35.8428 198.805 35.3551ZM209.179 40.2131C208.062 40.2131 207.101 39.9763 206.296 39.5028C205.496 39.0246 204.88 38.3617 204.449 37.5142C204.023 36.6667 203.81 35.6913 203.81 34.5881C203.81 33.4706 204.025 32.4905 204.456 31.6477C204.892 30.8002 205.51 30.1397 206.31 29.6662C207.11 29.188 208.062 28.9489 209.165 28.9489C210.117 28.9489 210.95 29.1217 211.665 29.4673C212.38 29.813 212.946 30.2983 213.363 30.9233C213.779 31.5483 214.009 32.2822 214.051 33.125H211.196C211.116 32.5805 210.903 32.1425 210.557 31.8111C210.216 31.4749 209.769 31.3068 209.215 31.3068C208.746 31.3068 208.337 31.4347 207.986 31.6903C207.641 31.9413 207.371 32.3082 207.176 32.7912C206.982 33.2741 206.885 33.8589 206.885 34.5455C206.885 35.2415 206.98 35.8333 207.169 36.321C207.364 36.8087 207.636 37.1804 207.986 37.4361C208.337 37.6918 208.746 37.8196 209.215 37.8196C209.56 37.8196 209.871 37.7486 210.145 37.6065C210.425 37.4645 210.654 37.2585 210.834 36.9886C211.019 36.714 211.14 36.3849 211.196 36.0014H214.051C214.004 36.8348 213.777 37.5687 213.37 38.2031C212.967 38.8329 212.411 39.3253 211.701 39.6804C210.99 40.0355 210.15 40.2131 209.179 40.2131ZM215.989 40V29.0909H218.922V30.9943H219.036C219.234 30.3172 219.568 29.8059 220.037 29.4602C220.506 29.1098 221.045 28.9347 221.656 28.9347C221.808 28.9347 221.971 28.9441 222.146 28.9631C222.321 28.982 222.475 29.008 222.608 29.0412V31.7259C222.466 31.6832 222.269 31.6454 222.018 31.6122C221.768 31.5791 221.538 31.5625 221.33 31.5625C220.884 31.5625 220.487 31.6596 220.136 31.8537C219.791 32.0431 219.516 32.3082 219.312 32.6491C219.114 32.9901 219.014 33.383 219.014 33.8281V40H215.989ZM228.593 40.2131C227.49 40.2131 226.536 39.9787 225.731 39.5099C224.931 39.0365 224.313 38.3783 223.877 37.5355C223.442 36.688 223.224 35.7055 223.224 34.5881C223.224 33.4612 223.442 32.4763 223.877 31.6335C224.313 30.786 224.931 30.1278 225.731 29.6591C226.536 29.1856 227.49 28.9489 228.593 28.9489C229.697 28.9489 230.648 29.1856 231.449 29.6591C232.253 30.1278 232.874 30.786 233.309 31.6335C233.745 32.4763 233.963 33.4612 233.963 34.5881C233.963 35.7055 233.745 36.688 233.309 37.5355C232.874 38.3783 232.253 39.0365 231.449 39.5099C230.648 39.9787 229.697 40.2131 228.593 40.2131ZM228.608 37.8693C229.109 37.8693 229.529 37.7273 229.865 37.4432C230.201 37.1544 230.454 36.7614 230.625 36.2642C230.8 35.767 230.887 35.2012 230.887 34.5668C230.887 33.9323 230.8 33.3665 230.625 32.8693C230.454 32.3722 230.201 31.9792 229.865 31.6903C229.529 31.4015 229.109 31.2571 228.608 31.2571C228.101 31.2571 227.675 31.4015 227.329 31.6903C226.988 31.9792 226.73 32.3722 226.555 32.8693C226.385 33.3665 226.299 33.9323 226.299 34.5668C226.299 35.2012 226.385 35.767 226.555 36.2642C226.73 36.7614 226.988 37.1544 227.329 37.4432C227.675 37.7273 228.101 37.8693 228.608 37.8693ZM245.772 40H240.616V25.4545H245.815C247.278 25.4545 248.537 25.7457 249.593 26.3281C250.649 26.9058 251.461 27.7367 252.029 28.821C252.602 29.9053 252.888 31.2027 252.888 32.7131C252.888 34.2282 252.602 35.5303 252.029 36.6193C251.461 37.7083 250.644 38.544 249.579 39.1264C248.518 39.7088 247.249 40 245.772 40ZM243.691 37.3651H245.644C246.553 37.3651 247.318 37.2041 247.938 36.8821C248.563 36.5554 249.032 36.0511 249.344 35.3693C249.662 34.6828 249.82 33.7973 249.82 32.7131C249.82 31.6383 249.662 30.7599 249.344 30.0781C249.032 29.3963 248.566 28.8944 247.945 28.5724C247.325 28.2505 246.56 28.0895 245.651 28.0895H243.691V37.3651ZM260.081 40.2131C258.959 40.2131 257.993 39.9858 257.184 39.5312C256.379 39.072 255.758 38.4233 255.323 37.5852C254.887 36.7424 254.669 35.7457 254.669 34.5952C254.669 33.473 254.887 32.4882 255.323 31.6406C255.758 30.7931 256.372 30.1326 257.162 29.6591C257.958 29.1856 258.891 28.9489 259.961 28.9489C260.68 28.9489 261.35 29.0649 261.971 29.2969C262.596 29.5241 263.14 29.8674 263.604 30.3267C264.073 30.786 264.437 31.3636 264.698 32.0597C264.958 32.7509 265.088 33.5606 265.088 34.4886V35.3196H255.877V33.4446H262.24C262.24 33.009 262.146 32.6231 261.956 32.2869C261.767 31.9508 261.504 31.688 261.168 31.4986C260.837 31.3045 260.451 31.2074 260.01 31.2074C259.551 31.2074 259.144 31.3139 258.789 31.527C258.438 31.7353 258.164 32.017 257.965 32.3722C257.766 32.7225 257.664 33.1132 257.659 33.544V35.3267C257.659 35.8665 257.759 36.3329 257.958 36.7259C258.161 37.1188 258.448 37.4219 258.817 37.6349C259.186 37.848 259.624 37.9545 260.131 37.9545C260.467 37.9545 260.775 37.9072 261.054 37.8125C261.334 37.7178 261.573 37.5758 261.772 37.3864C261.971 37.197 262.122 36.965 262.226 36.6903L265.025 36.875C264.882 37.5473 264.591 38.1345 264.151 38.6364C263.715 39.1335 263.152 39.5218 262.461 39.8011C261.774 40.0758 260.981 40.2131 260.081 40.2131ZM272.865 29.0909V31.3636H266.296V29.0909H272.865ZM267.787 26.4773H270.813V36.6477C270.813 36.9271 270.855 37.1449 270.941 37.3011C271.026 37.4527 271.144 37.5592 271.296 37.6207C271.452 37.6823 271.632 37.7131 271.836 37.7131C271.978 37.7131 272.12 37.7012 272.262 37.6776C272.404 37.6491 272.513 37.6278 272.588 37.6136L273.064 39.8651C272.913 39.9124 272.7 39.9669 272.425 40.0284C272.15 40.0947 271.817 40.1349 271.424 40.1491C270.694 40.1776 270.055 40.0805 269.506 39.858C268.962 39.6354 268.538 39.2898 268.235 38.821C267.932 38.3523 267.783 37.7604 267.787 37.0455V26.4773ZM277.947 40.206C277.251 40.206 276.631 40.0852 276.086 39.8438C275.542 39.5975 275.111 39.2353 274.794 38.7571C274.481 38.2741 274.325 37.6728 274.325 36.9531C274.325 36.3471 274.436 35.8381 274.659 35.4261C274.881 35.0142 275.184 34.6828 275.568 34.4318C275.951 34.1809 276.387 33.9915 276.875 33.8636C277.367 33.7358 277.883 33.6458 278.423 33.5938C279.057 33.5275 279.569 33.4659 279.957 33.4091C280.345 33.3475 280.627 33.2576 280.802 33.1392C280.977 33.0208 281.065 32.8456 281.065 32.6136V32.571C281.065 32.1212 280.923 31.7732 280.639 31.527C280.359 31.2808 279.962 31.1577 279.446 31.1577C278.901 31.1577 278.468 31.2784 278.146 31.5199C277.824 31.7566 277.611 32.0549 277.507 32.4148L274.708 32.1875C274.85 31.5246 275.13 30.9517 275.547 30.4688C275.963 29.9811 276.501 29.607 277.159 29.3466C277.822 29.0814 278.589 28.9489 279.46 28.9489C280.066 28.9489 280.646 29.0199 281.2 29.1619C281.759 29.304 282.253 29.5241 282.684 29.8224C283.12 30.1207 283.463 30.5043 283.714 30.973C283.965 31.437 284.091 31.9934 284.091 32.642V40H281.221V38.4872H281.136C280.961 38.8281 280.726 39.1288 280.433 39.3892C280.139 39.6449 279.787 39.8461 279.375 39.9929C278.963 40.1349 278.487 40.206 277.947 40.206ZM278.814 38.1179C279.259 38.1179 279.652 38.0303 279.993 37.8551C280.333 37.6752 280.601 37.4337 280.795 37.1307C280.989 36.8277 281.086 36.4844 281.086 36.1009V34.9432C280.992 35.0047 280.861 35.0616 280.696 35.1136C280.535 35.161 280.352 35.206 280.149 35.2486C279.945 35.2865 279.742 35.322 279.538 35.3551C279.334 35.3835 279.15 35.4096 278.984 35.4332C278.629 35.4853 278.319 35.5682 278.054 35.6818C277.788 35.7955 277.583 35.9493 277.436 36.1435C277.289 36.3329 277.216 36.5696 277.216 36.8537C277.216 37.2656 277.365 37.5805 277.663 37.7983C277.966 38.0114 278.35 38.1179 278.814 38.1179ZM289.463 25.4545V40H286.438V25.4545H289.463ZM294.913 33.6932V40H291.887V25.4545H294.827V31.0156H294.955C295.201 30.3717 295.599 29.8674 296.148 29.5028C296.698 29.1335 297.387 28.9489 298.215 28.9489C298.973 28.9489 299.633 29.1146 300.197 29.446C300.765 29.7727 301.205 30.2438 301.518 30.8594C301.835 31.4702 301.991 32.2017 301.987 33.054V40H298.961V33.5938C298.966 32.9214 298.795 32.3982 298.45 32.0241C298.109 31.6501 297.63 31.4631 297.015 31.4631C296.603 31.4631 296.238 31.5507 295.921 31.7259C295.609 31.901 295.362 32.1567 295.183 32.4929C295.007 32.8243 294.917 33.2244 294.913 33.6932ZM307.478 40.206C306.782 40.206 306.162 40.0852 305.618 39.8438C305.073 39.5975 304.642 39.2353 304.325 38.7571C304.012 38.2741 303.856 37.6728 303.856 36.9531C303.856 36.3471 303.967 35.8381 304.19 35.4261C304.413 35.0142 304.716 34.6828 305.099 34.4318C305.483 34.1809 305.918 33.9915 306.406 33.8636C306.898 33.7358 307.414 33.6458 307.954 33.5938C308.589 33.5275 309.1 33.4659 309.488 33.4091C309.877 33.3475 310.158 33.2576 310.333 33.1392C310.509 33.0208 310.596 32.8456 310.596 32.6136V32.571C310.596 32.1212 310.454 31.7732 310.17 31.527C309.891 31.2808 309.493 31.1577 308.977 31.1577C308.432 31.1577 307.999 31.2784 307.677 31.5199C307.355 31.7566 307.142 32.0549 307.038 32.4148L304.24 32.1875C304.382 31.5246 304.661 30.9517 305.078 30.4688C305.494 29.9811 306.032 29.607 306.69 29.3466C307.353 29.0814 308.12 28.9489 308.991 28.9489C309.597 28.9489 310.177 29.0199 310.731 29.1619C311.29 29.304 311.785 29.5241 312.216 29.8224C312.651 30.1207 312.994 30.5043 313.245 30.973C313.496 31.437 313.622 31.9934 313.622 32.642V40H310.752V38.4872H310.667C310.492 38.8281 310.258 39.1288 309.964 39.3892C309.671 39.6449 309.318 39.8461 308.906 39.9929C308.494 40.1349 308.018 40.206 307.478 40.206ZM308.345 38.1179C308.79 38.1179 309.183 38.0303 309.524 37.8551C309.865 37.6752 310.132 37.4337 310.326 37.1307C310.52 36.8277 310.618 36.4844 310.618 36.1009V34.9432C310.523 35.0047 310.393 35.0616 310.227 35.1136C310.066 35.161 309.884 35.206 309.68 35.2486C309.476 35.2865 309.273 35.322 309.069 35.3551C308.866 35.3835 308.681 35.4096 308.515 35.4332C308.16 35.4853 307.85 35.5682 307.585 35.6818C307.32 35.7955 307.114 35.9493 306.967 36.1435C306.82 36.3329 306.747 36.5696 306.747 36.8537C306.747 37.2656 306.896 37.5805 307.194 37.7983C307.497 38.0114 307.881 38.1179 308.345 38.1179ZM319.989 40.1776C319.16 40.1776 318.41 39.9645 317.738 39.5384C317.07 39.1075 316.54 38.4754 316.147 37.642C315.758 36.804 315.564 35.7765 315.564 34.5597C315.564 33.3097 315.766 32.2704 316.168 31.4418C316.57 30.6084 317.105 29.9858 317.773 29.5739C318.445 29.1572 319.182 28.9489 319.982 28.9489C320.593 28.9489 321.102 29.053 321.509 29.2614C321.921 29.465 322.252 29.7206 322.503 30.0284C322.759 30.3314 322.953 30.6297 323.086 30.9233H323.178V25.4545H326.196V40H323.213V38.2528H323.086C322.944 38.5559 322.742 38.8565 322.482 39.1548C322.226 39.4484 321.892 39.6922 321.48 39.8864C321.073 40.0805 320.576 40.1776 319.989 40.1776ZM320.948 37.7699C321.435 37.7699 321.847 37.6373 322.184 37.3722C322.525 37.1023 322.785 36.7259 322.965 36.2429C323.15 35.7599 323.242 35.1941 323.242 34.5455C323.242 33.8968 323.152 33.3333 322.972 32.8551C322.792 32.3769 322.532 32.0076 322.191 31.7472C321.85 31.4867 321.435 31.3565 320.948 31.3565C320.451 31.3565 320.032 31.4915 319.691 31.7614C319.35 32.0312 319.092 32.4053 318.917 32.8835C318.741 33.3617 318.654 33.9157 318.654 34.5455C318.654 35.1799 318.741 35.741 318.917 36.2287C319.096 36.7116 319.355 37.0904 319.691 37.3651C320.032 37.6349 320.451 37.7699 320.948 37.7699ZM333.613 40.2131C332.51 40.2131 331.556 39.9787 330.751 39.5099C329.951 39.0365 329.333 38.3783 328.897 37.5355C328.461 36.688 328.244 35.7055 328.244 34.5881C328.244 33.4612 328.461 32.4763 328.897 31.6335C329.333 30.786 329.951 30.1278 330.751 29.6591C331.556 29.1856 332.51 28.9489 333.613 28.9489C334.716 28.9489 335.668 29.1856 336.468 29.6591C337.273 30.1278 337.893 30.786 338.329 31.6335C338.764 32.4763 338.982 33.4612 338.982 34.5881C338.982 35.7055 338.764 36.688 338.329 37.5355C337.893 38.3783 337.273 39.0365 336.468 39.5099C335.668 39.9787 334.716 40.2131 333.613 40.2131ZM333.627 37.8693C334.129 37.8693 334.548 37.7273 334.884 37.4432C335.22 37.1544 335.474 36.7614 335.644 36.2642C335.819 35.767 335.907 35.2012 335.907 34.5668C335.907 33.9323 335.819 33.3665 335.644 32.8693C335.474 32.3722 335.22 31.9792 334.884 31.6903C334.548 31.4015 334.129 31.2571 333.627 31.2571C333.121 31.2571 332.694 31.4015 332.349 31.6903C332.008 31.9792 331.75 32.3722 331.575 32.8693C331.404 33.3665 331.319 33.9323 331.319 34.5668C331.319 35.2012 331.404 35.767 331.575 36.2642C331.75 36.7614 332.008 37.1544 332.349 37.4432C332.694 37.7273 333.121 37.8693 333.627 37.8693Z" fill="black"/>
<rect x="408" y="261" width="476" height="280" rx="5" fill="#F8EEEE"/>
<rect x="408" y="68" width="245" height="183" rx="5" fill="#F8EEEE"/>
<path d="M421.493 274.783C421.459 274.439 421.313 274.172 421.054 273.982C420.795 273.791 420.445 273.696 420.001 273.696C419.7 273.696 419.446 273.739 419.239 273.824C419.031 273.906 418.872 274.021 418.761 274.169C418.653 274.317 418.599 274.484 418.599 274.672C418.594 274.828 418.626 274.964 418.697 275.081C418.771 275.197 418.872 275.298 419 275.384C419.128 275.466 419.276 275.538 419.443 275.601C419.611 275.661 419.79 275.712 419.98 275.754L420.764 275.942C421.145 276.027 421.494 276.141 421.812 276.283C422.131 276.425 422.406 276.599 422.639 276.807C422.872 277.014 423.053 277.259 423.18 277.54C423.311 277.821 423.378 278.143 423.381 278.507C423.378 279.041 423.241 279.504 422.972 279.896C422.705 280.286 422.318 280.588 421.812 280.804C421.31 281.017 420.703 281.124 419.993 281.124C419.288 281.124 418.675 281.016 418.152 280.8C417.632 280.584 417.226 280.264 416.933 279.841C416.643 279.415 416.491 278.888 416.477 278.26H418.263C418.283 278.553 418.366 278.797 418.514 278.993C418.665 279.186 418.865 279.332 419.115 279.432C419.368 279.528 419.653 279.577 419.972 279.577C420.284 279.577 420.555 279.531 420.786 279.44C421.018 279.349 421.199 279.223 421.327 279.061C421.455 278.899 421.518 278.713 421.518 278.503C421.518 278.307 421.46 278.142 421.344 278.009C421.23 277.875 421.063 277.761 420.841 277.668C420.622 277.574 420.354 277.489 420.036 277.412L419.085 277.173C418.349 276.994 417.768 276.714 417.342 276.334C416.916 275.953 416.705 275.44 416.707 274.795C416.705 274.267 416.845 273.805 417.129 273.411C417.416 273.016 417.81 272.707 418.31 272.486C418.81 272.264 419.378 272.153 420.014 272.153C420.662 272.153 421.227 272.264 421.71 272.486C422.196 272.707 422.574 273.016 422.844 273.411C423.114 273.805 423.253 274.263 423.261 274.783H421.493ZM427.545 281.128C426.883 281.128 426.311 280.987 425.828 280.706C425.348 280.422 424.977 280.027 424.716 279.521C424.454 279.013 424.324 278.423 424.324 277.753C424.324 277.077 424.454 276.486 424.716 275.98C424.977 275.472 425.348 275.077 425.828 274.795C426.311 274.511 426.883 274.369 427.545 274.369C428.207 274.369 428.778 274.511 429.258 274.795C429.741 275.077 430.113 275.472 430.375 275.98C430.636 276.486 430.767 277.077 430.767 277.753C430.767 278.423 430.636 279.013 430.375 279.521C430.113 280.027 429.741 280.422 429.258 280.706C428.778 280.987 428.207 281.128 427.545 281.128ZM427.554 279.722C427.855 279.722 428.106 279.636 428.308 279.466C428.51 279.293 428.662 279.057 428.764 278.759C428.869 278.46 428.922 278.121 428.922 277.74C428.922 277.359 428.869 277.02 428.764 276.722C428.662 276.423 428.51 276.187 428.308 276.014C428.106 275.841 427.855 275.754 427.554 275.754C427.25 275.754 426.994 275.841 426.787 276.014C426.582 276.187 426.427 276.423 426.322 276.722C426.22 277.02 426.169 277.359 426.169 277.74C426.169 278.121 426.22 278.46 426.322 278.759C426.427 279.057 426.582 279.293 426.787 279.466C426.994 279.636 427.25 279.722 427.554 279.722ZM431.947 281V274.455H433.677V275.609H433.754C433.89 275.226 434.118 274.923 434.436 274.702C434.754 274.48 435.135 274.369 435.578 274.369C436.027 274.369 436.409 274.482 436.724 274.706C437.039 274.928 437.25 275.229 437.355 275.609H437.423C437.556 275.234 437.798 274.935 438.147 274.71C438.5 274.483 438.916 274.369 439.396 274.369C440.007 274.369 440.502 274.564 440.883 274.953C441.267 275.339 441.458 275.888 441.458 276.598V281H439.647V276.956C439.647 276.592 439.551 276.32 439.358 276.138C439.164 275.956 438.923 275.865 438.633 275.865C438.304 275.865 438.047 275.97 437.862 276.18C437.677 276.388 437.585 276.662 437.585 277.003V281H435.825V276.918C435.825 276.597 435.733 276.341 435.548 276.151C435.366 275.96 435.126 275.865 434.828 275.865C434.626 275.865 434.444 275.916 434.282 276.018C434.123 276.118 433.997 276.259 433.903 276.44C433.809 276.619 433.762 276.83 433.762 277.071V281H431.947ZM444.759 281.124C444.341 281.124 443.969 281.051 443.642 280.906C443.316 280.759 443.057 280.541 442.867 280.254C442.679 279.964 442.586 279.604 442.586 279.172C442.586 278.808 442.652 278.503 442.786 278.256C442.919 278.009 443.101 277.81 443.331 277.659C443.561 277.509 443.823 277.395 444.115 277.318C444.411 277.241 444.721 277.188 445.044 277.156C445.425 277.116 445.732 277.08 445.965 277.045C446.198 277.009 446.367 276.955 446.472 276.884C446.577 276.812 446.63 276.707 446.63 276.568V276.543C446.63 276.273 446.544 276.064 446.374 275.916C446.206 275.768 445.968 275.695 445.658 275.695C445.331 275.695 445.071 275.767 444.878 275.912C444.685 276.054 444.557 276.233 444.495 276.449L442.816 276.312C442.901 275.915 443.069 275.571 443.319 275.281C443.569 274.989 443.891 274.764 444.286 274.608C444.684 274.449 445.144 274.369 445.667 274.369C446.03 274.369 446.378 274.412 446.711 274.497C447.046 274.582 447.343 274.714 447.601 274.893C447.863 275.072 448.069 275.303 448.219 275.584C448.37 275.862 448.445 276.196 448.445 276.585V281H446.723V280.092H446.672C446.567 280.297 446.426 280.477 446.25 280.634C446.074 280.787 445.863 280.908 445.615 280.996C445.368 281.081 445.083 281.124 444.759 281.124ZM445.279 279.871C445.546 279.871 445.782 279.818 445.986 279.713C446.191 279.605 446.351 279.46 446.468 279.278C446.584 279.097 446.642 278.891 446.642 278.661V277.966C446.586 278.003 446.507 278.037 446.408 278.068C446.311 278.097 446.202 278.124 446.08 278.149C445.958 278.172 445.836 278.193 445.713 278.213C445.591 278.23 445.48 278.246 445.381 278.26C445.168 278.291 444.982 278.341 444.823 278.409C444.664 278.477 444.54 278.57 444.452 278.686C444.364 278.8 444.32 278.942 444.32 279.112C444.32 279.359 444.409 279.548 444.588 279.679C444.77 279.807 445 279.871 445.279 279.871ZM455.043 281.107C454.545 281.107 454.095 280.979 453.692 280.723C453.291 280.464 452.973 280.085 452.737 279.585C452.504 279.082 452.388 278.466 452.388 277.736C452.388 276.986 452.509 276.362 452.75 275.865C452.991 275.365 453.313 274.991 453.713 274.744C454.116 274.494 454.558 274.369 455.038 274.369C455.405 274.369 455.71 274.432 455.955 274.557C456.202 274.679 456.401 274.832 456.551 275.017C456.705 275.199 456.821 275.378 456.901 275.554H456.956V272.273H458.767V281H456.977V279.952H456.901C456.815 280.134 456.695 280.314 456.538 280.493C456.385 280.669 456.185 280.815 455.938 280.932C455.693 281.048 455.395 281.107 455.043 281.107ZM455.618 279.662C455.911 279.662 456.158 279.582 456.359 279.423C456.564 279.261 456.72 279.036 456.828 278.746C456.939 278.456 456.994 278.116 456.994 277.727C456.994 277.338 456.94 277 456.832 276.713C456.724 276.426 456.568 276.205 456.364 276.048C456.159 275.892 455.911 275.814 455.618 275.814C455.32 275.814 455.068 275.895 454.864 276.057C454.659 276.219 454.504 276.443 454.399 276.73C454.294 277.017 454.241 277.349 454.241 277.727C454.241 278.108 454.294 278.445 454.399 278.737C454.507 279.027 454.662 279.254 454.864 279.419C455.068 279.581 455.32 279.662 455.618 279.662ZM463.243 281.128C462.569 281.128 461.99 280.991 461.504 280.719C461.021 280.443 460.649 280.054 460.387 279.551C460.126 279.045 459.995 278.447 459.995 277.757C459.995 277.084 460.126 276.493 460.387 275.984C460.649 275.476 461.017 275.08 461.491 274.795C461.968 274.511 462.528 274.369 463.17 274.369C463.602 274.369 464.004 274.439 464.376 274.578C464.751 274.714 465.078 274.92 465.356 275.196C465.637 275.472 465.856 275.818 466.012 276.236C466.169 276.651 466.247 277.136 466.247 277.693V278.192H460.72V277.067H464.538C464.538 276.805 464.481 276.574 464.368 276.372C464.254 276.17 464.096 276.013 463.895 275.899C463.696 275.783 463.464 275.724 463.2 275.724C462.924 275.724 462.68 275.788 462.467 275.916C462.257 276.041 462.092 276.21 461.973 276.423C461.853 276.634 461.792 276.868 461.789 277.126V278.196C461.789 278.52 461.849 278.8 461.968 279.036C462.091 279.271 462.262 279.453 462.484 279.581C462.706 279.709 462.968 279.773 463.272 279.773C463.474 279.773 463.659 279.744 463.826 279.688C463.994 279.631 464.137 279.545 464.257 279.432C464.376 279.318 464.467 279.179 464.529 279.014L466.208 279.125C466.123 279.528 465.949 279.881 465.684 280.182C465.423 280.48 465.085 280.713 464.67 280.881C464.258 281.045 463.782 281.128 463.243 281.128ZM470.243 281V272.273H473.686C474.348 272.273 474.912 272.399 475.378 272.652C475.844 272.902 476.199 273.25 476.443 273.696C476.69 274.139 476.814 274.651 476.814 275.23C476.814 275.81 476.689 276.321 476.439 276.764C476.189 277.207 475.827 277.553 475.352 277.8C474.881 278.047 474.31 278.17 473.639 278.17H471.445V276.692H473.341C473.696 276.692 473.989 276.631 474.219 276.509C474.452 276.384 474.625 276.212 474.739 275.993C474.855 275.771 474.913 275.517 474.913 275.23C474.913 274.94 474.855 274.687 474.739 274.472C474.625 274.253 474.452 274.084 474.219 273.964C473.986 273.842 473.69 273.781 473.332 273.781H472.088V281H470.243ZM477.978 281V274.455H479.738V275.597H479.806C479.926 275.19 480.126 274.884 480.407 274.676C480.689 274.466 481.012 274.361 481.379 274.361C481.47 274.361 481.568 274.366 481.673 274.378C481.778 274.389 481.87 274.405 481.95 274.425V276.036C481.865 276.01 481.747 275.987 481.596 275.967C481.446 275.947 481.308 275.938 481.183 275.938C480.916 275.938 480.677 275.996 480.467 276.112C480.26 276.226 480.095 276.385 479.973 276.589C479.853 276.794 479.794 277.03 479.794 277.297V281H477.978ZM485.541 281.128C484.879 281.128 484.307 280.987 483.824 280.706C483.344 280.422 482.973 280.027 482.712 279.521C482.45 279.013 482.32 278.423 482.32 277.753C482.32 277.077 482.45 276.486 482.712 275.98C482.973 275.472 483.344 275.077 483.824 274.795C484.307 274.511 484.879 274.369 485.541 274.369C486.203 274.369 486.774 274.511 487.254 274.795C487.737 275.077 488.109 275.472 488.371 275.98C488.632 276.486 488.763 277.077 488.763 277.753C488.763 278.423 488.632 279.013 488.371 279.521C488.109 280.027 487.737 280.422 487.254 280.706C486.774 280.987 486.203 281.128 485.541 281.128ZM485.55 279.722C485.851 279.722 486.102 279.636 486.304 279.466C486.506 279.293 486.658 279.057 486.76 278.759C486.865 278.46 486.918 278.121 486.918 277.74C486.918 277.359 486.865 277.02 486.76 276.722C486.658 276.423 486.506 276.187 486.304 276.014C486.102 275.841 485.851 275.754 485.55 275.754C485.246 275.754 484.99 275.841 484.783 276.014C484.578 276.187 484.423 276.423 484.318 276.722C484.216 277.02 484.165 277.359 484.165 277.74C484.165 278.121 484.216 278.46 484.318 278.759C484.423 279.057 484.578 279.293 484.783 279.466C484.99 279.636 485.246 279.722 485.55 279.722ZM493.463 274.455V275.818H489.423V274.455H493.463ZM490.348 281V273.982C490.348 273.507 490.44 273.114 490.625 272.801C490.812 272.489 491.068 272.254 491.392 272.098C491.716 271.942 492.084 271.864 492.496 271.864C492.774 271.864 493.028 271.885 493.259 271.928C493.491 271.97 493.665 272.009 493.778 272.043L493.455 273.406C493.384 273.384 493.295 273.362 493.19 273.342C493.088 273.322 492.983 273.312 492.875 273.312C492.608 273.312 492.422 273.375 492.317 273.5C492.212 273.622 492.159 273.794 492.159 274.016V281H490.348ZM494.572 281V274.455H496.387V281H494.572ZM495.484 273.611C495.214 273.611 494.983 273.521 494.789 273.342C494.599 273.161 494.504 272.943 494.504 272.69C494.504 272.44 494.599 272.226 494.789 272.047C494.983 271.865 495.214 271.774 495.484 271.774C495.754 271.774 495.984 271.865 496.174 272.047C496.368 272.226 496.464 272.44 496.464 272.69C496.464 272.943 496.368 273.161 496.174 273.342C495.984 273.521 495.754 273.611 495.484 273.611ZM501.323 274.455V275.818H497.381V274.455H501.323ZM498.276 272.886H500.092V278.989C500.092 279.156 500.117 279.287 500.168 279.381C500.219 279.472 500.29 279.536 500.381 279.572C500.475 279.609 500.583 279.628 500.705 279.628C500.79 279.628 500.876 279.621 500.961 279.607C501.046 279.589 501.112 279.577 501.157 279.568L501.442 280.919C501.352 280.947 501.224 280.98 501.059 281.017C500.894 281.057 500.694 281.081 500.458 281.089C500.021 281.107 499.637 281.048 499.308 280.915C498.981 280.781 498.727 280.574 498.545 280.293C498.363 280.011 498.273 279.656 498.276 279.227V272.886ZM504.985 273.794V272.273H512.152V273.794H509.48V281H507.657V273.794H504.985ZM512.619 281V274.455H514.379V275.597H514.447C514.566 275.19 514.767 274.884 515.048 274.676C515.329 274.466 515.653 274.361 516.02 274.361C516.11 274.361 516.208 274.366 516.314 274.378C516.419 274.389 516.511 274.405 516.591 274.425V276.036C516.505 276.01 516.387 275.987 516.237 275.967C516.086 275.947 515.949 275.938 515.824 275.938C515.556 275.938 515.318 275.996 515.108 276.112C514.9 276.226 514.735 276.385 514.613 276.589C514.494 276.794 514.434 277.03 514.434 277.297V281H512.619ZM517.529 281V274.455H519.344V281H517.529ZM518.441 273.611C518.171 273.611 517.94 273.521 517.746 273.342C517.556 273.161 517.461 272.943 517.461 272.69C517.461 272.44 517.556 272.226 517.746 272.047C517.94 271.865 518.171 271.774 518.441 271.774C518.711 271.774 518.941 271.865 519.131 272.047C519.325 272.226 519.421 272.44 519.421 272.69C519.421 272.943 519.325 273.161 519.131 273.342C518.941 273.521 518.711 273.611 518.441 273.611ZM520.799 281V274.455H522.529V275.609H522.605C522.742 275.226 522.969 274.923 523.287 274.702C523.605 274.48 523.986 274.369 524.429 274.369C524.878 274.369 525.26 274.482 525.576 274.706C525.891 274.928 526.101 275.229 526.206 275.609H526.275C526.408 275.234 526.65 274.935 526.999 274.71C527.351 274.483 527.767 274.369 528.248 274.369C528.858 274.369 529.354 274.564 529.735 274.953C530.118 275.339 530.31 275.888 530.31 276.598V281H528.499V276.956C528.499 276.592 528.402 276.32 528.209 276.138C528.016 275.956 527.775 275.865 527.485 275.865C527.155 275.865 526.898 275.97 526.713 276.18C526.529 276.388 526.436 276.662 526.436 277.003V281H524.676V276.918C524.676 276.597 524.584 276.341 524.4 276.151C524.218 275.96 523.978 275.865 523.679 275.865C523.478 275.865 523.296 275.916 523.134 276.018C522.975 276.118 522.848 276.259 522.755 276.44C522.661 276.619 522.614 276.83 522.614 277.071V281H520.799ZM534.727 281.128C534.054 281.128 533.474 280.991 532.988 280.719C532.505 280.443 532.133 280.054 531.872 279.551C531.61 279.045 531.48 278.447 531.48 277.757C531.48 277.084 531.61 276.493 531.872 275.984C532.133 275.476 532.501 275.08 532.975 274.795C533.453 274.511 534.012 274.369 534.654 274.369C535.086 274.369 535.488 274.439 535.86 274.578C536.235 274.714 536.562 274.92 536.841 275.196C537.122 275.472 537.341 275.818 537.497 276.236C537.653 276.651 537.731 277.136 537.731 277.693V278.192H532.204V277.067H536.022C536.022 276.805 535.966 276.574 535.852 276.372C535.738 276.17 535.581 276.013 535.379 275.899C535.18 275.783 534.949 275.724 534.684 275.724C534.409 275.724 534.164 275.788 533.951 275.916C533.741 276.041 533.576 276.21 533.457 276.423C533.338 276.634 533.277 276.868 533.274 277.126V278.196C533.274 278.52 533.333 278.8 533.453 279.036C533.575 279.271 533.747 279.453 533.968 279.581C534.19 279.709 534.453 279.773 534.757 279.773C534.958 279.773 535.143 279.744 535.311 279.688C535.478 279.631 535.622 279.545 535.741 279.432C535.86 279.318 535.951 279.179 536.014 279.014L537.693 279.125C537.608 279.528 537.433 279.881 537.169 280.182C536.907 280.48 536.569 280.713 536.154 280.881C535.743 281.045 535.267 281.128 534.727 281.128ZM544.362 276.321L542.7 276.423C542.672 276.281 542.61 276.153 542.517 276.04C542.423 275.923 542.299 275.831 542.146 275.763C541.995 275.692 541.815 275.656 541.605 275.656C541.324 275.656 541.086 275.716 540.893 275.835C540.7 275.952 540.603 276.108 540.603 276.304C540.603 276.46 540.666 276.592 540.791 276.7C540.916 276.808 541.13 276.895 541.434 276.96L542.619 277.199C543.255 277.33 543.73 277.54 544.042 277.83C544.355 278.119 544.511 278.5 544.511 278.972C544.511 279.401 544.385 279.777 544.132 280.101C543.882 280.425 543.538 280.678 543.1 280.859C542.666 281.038 542.164 281.128 541.596 281.128C540.73 281.128 540.039 280.947 539.525 280.587C539.014 280.223 538.714 279.729 538.626 279.104L540.412 279.01C540.466 279.274 540.596 279.476 540.804 279.615C541.011 279.751 541.277 279.82 541.6 279.82C541.919 279.82 542.174 279.759 542.368 279.636C542.564 279.511 542.663 279.351 542.666 279.155C542.663 278.99 542.593 278.855 542.457 278.75C542.321 278.642 542.11 278.56 541.826 278.503L540.693 278.277C540.054 278.149 539.578 277.928 539.265 277.612C538.956 277.297 538.801 276.895 538.801 276.406C538.801 275.986 538.914 275.624 539.142 275.32C539.372 275.016 539.694 274.781 540.109 274.616C540.527 274.452 541.015 274.369 541.575 274.369C542.402 274.369 543.052 274.544 543.527 274.893C544.004 275.243 544.282 275.719 544.362 276.321ZM549.136 274.455V275.818H545.194V274.455H549.136ZM546.089 272.886H547.904V278.989C547.904 279.156 547.93 279.287 547.981 279.381C548.032 279.472 548.103 279.536 548.194 279.572C548.288 279.609 548.396 279.628 548.518 279.628C548.603 279.628 548.688 279.621 548.773 279.607C548.859 279.589 548.924 279.577 548.969 279.568L549.255 280.919C549.164 280.947 549.036 280.98 548.871 281.017C548.707 281.057 548.506 281.081 548.271 281.089C547.833 281.107 547.45 281.048 547.12 280.915C546.793 280.781 546.539 280.574 546.357 280.293C546.175 280.011 546.086 279.656 546.089 279.227V272.886ZM550.318 281V274.455H552.078V275.597H552.146C552.266 275.19 552.466 274.884 552.747 274.676C553.028 274.466 553.352 274.361 553.719 274.361C553.81 274.361 553.908 274.366 554.013 274.378C554.118 274.389 554.21 274.405 554.29 274.425V276.036C554.205 276.01 554.087 275.987 553.936 275.967C553.786 275.947 553.648 275.938 553.523 275.938C553.256 275.938 553.017 275.996 552.807 276.112C552.599 276.226 552.435 276.385 552.312 276.589C552.193 276.794 552.134 277.03 552.134 277.297V281H550.318ZM556.907 281.124C556.49 281.124 556.118 281.051 555.791 280.906C555.464 280.759 555.206 280.541 555.015 280.254C554.828 279.964 554.734 279.604 554.734 279.172C554.734 278.808 554.801 278.503 554.934 278.256C555.068 278.009 555.25 277.81 555.48 277.659C555.71 277.509 555.971 277.395 556.264 277.318C556.559 277.241 556.869 277.188 557.193 277.156C557.574 277.116 557.88 277.08 558.113 277.045C558.346 277.009 558.515 276.955 558.62 276.884C558.725 276.812 558.778 276.707 558.778 276.568V276.543C558.778 276.273 558.693 276.064 558.522 275.916C558.355 275.768 558.116 275.695 557.806 275.695C557.48 275.695 557.22 275.767 557.027 275.912C556.833 276.054 556.706 276.233 556.643 276.449L554.964 276.312C555.049 275.915 555.217 275.571 555.467 275.281C555.717 274.989 556.039 274.764 556.434 274.608C556.832 274.449 557.292 274.369 557.815 274.369C558.179 274.369 558.527 274.412 558.859 274.497C559.194 274.582 559.491 274.714 559.75 274.893C560.011 275.072 560.217 275.303 560.368 275.584C560.518 275.862 560.593 276.196 560.593 276.585V281H558.872V280.092H558.821C558.716 280.297 558.575 280.477 558.399 280.634C558.223 280.787 558.011 280.908 557.764 280.996C557.517 281.081 557.231 281.124 556.907 281.124ZM557.427 279.871C557.694 279.871 557.93 279.818 558.135 279.713C558.339 279.605 558.5 279.46 558.616 279.278C558.733 279.097 558.791 278.891 558.791 278.661V277.966C558.734 278.003 558.656 278.037 558.556 278.068C558.46 278.097 558.35 278.124 558.228 278.149C558.106 278.172 557.984 278.193 557.862 278.213C557.74 278.23 557.629 278.246 557.529 278.26C557.316 278.291 557.13 278.341 556.971 278.409C556.812 278.477 556.689 278.57 556.6 278.686C556.512 278.8 556.468 278.942 556.468 279.112C556.468 279.359 556.558 279.548 556.737 279.679C556.919 279.807 557.149 279.871 557.427 279.871ZM563.817 272.273V281H562.002V272.273H563.817Z" fill="black"/>
<path d="M421.493 83.7827C421.459 83.4389 421.313 83.1719 421.054 82.9815C420.795 82.7912 420.445 82.696 420.001 82.696C419.7 82.696 419.446 82.7386 419.239 82.8239C419.031 82.9062 418.872 83.0213 418.761 83.169C418.653 83.3168 418.599 83.4844 418.599 83.6719C418.594 83.8281 418.626 83.9645 418.697 84.081C418.771 84.1974 418.872 84.2983 419 84.3835C419.128 84.4659 419.276 84.5384 419.443 84.6009C419.611 84.6605 419.79 84.7116 419.98 84.7543L420.764 84.9418C421.145 85.027 421.494 85.1406 421.812 85.2827C422.131 85.4247 422.406 85.5994 422.639 85.8068C422.872 86.0142 423.053 86.2585 423.18 86.5398C423.311 86.821 423.378 87.1435 423.381 87.5071C423.378 88.0412 423.241 88.5043 422.972 88.8963C422.705 89.2855 422.318 89.5881 421.812 89.804C421.31 90.017 420.703 90.1236 419.993 90.1236C419.288 90.1236 418.675 90.0156 418.152 89.7997C417.632 89.5838 417.226 89.2642 416.933 88.8409C416.643 88.4148 416.491 87.8878 416.477 87.2599H418.263C418.283 87.5526 418.366 87.7969 418.514 87.9929C418.665 88.1861 418.865 88.3324 419.115 88.4318C419.368 88.5284 419.653 88.5767 419.972 88.5767C420.284 88.5767 420.555 88.5312 420.786 88.4403C421.018 88.3494 421.199 88.223 421.327 88.0611C421.455 87.8991 421.518 87.7131 421.518 87.5028C421.518 87.3068 421.46 87.142 421.344 87.0085C421.23 86.875 421.063 86.7614 420.841 86.6676C420.622 86.5739 420.354 86.4886 420.036 86.4119L419.085 86.1733C418.349 85.9943 417.768 85.7145 417.342 85.3338C416.916 84.9531 416.705 84.4403 416.707 83.7955C416.705 83.267 416.845 82.8054 417.129 82.4105C417.416 82.0156 417.81 81.7074 418.31 81.4858C418.81 81.2642 419.378 81.1534 420.014 81.1534C420.662 81.1534 421.227 81.2642 421.71 81.4858C422.196 81.7074 422.574 82.0156 422.844 82.4105C423.114 82.8054 423.253 83.2628 423.261 83.7827H421.493ZM427.545 90.1278C426.883 90.1278 426.311 89.9872 425.828 89.706C425.348 89.4219 424.977 89.027 424.716 88.5213C424.454 88.0128 424.324 87.4233 424.324 86.7528C424.324 86.0767 424.454 85.4858 424.716 84.9801C424.977 84.4716 425.348 84.0767 425.828 83.7955C426.311 83.5114 426.883 83.3693 427.545 83.3693C428.207 83.3693 428.778 83.5114 429.258 83.7955C429.741 84.0767 430.113 84.4716 430.375 84.9801C430.636 85.4858 430.767 86.0767 430.767 86.7528C430.767 87.4233 430.636 88.0128 430.375 88.5213C430.113 89.027 429.741 89.4219 429.258 89.706C428.778 89.9872 428.207 90.1278 427.545 90.1278ZM427.554 88.7216C427.855 88.7216 428.106 88.6364 428.308 88.4659C428.51 88.2926 428.662 88.0568 428.764 87.7585C428.869 87.4602 428.922 87.1207 428.922 86.7401C428.922 86.3594 428.869 86.0199 428.764 85.7216C428.662 85.4233 428.51 85.1875 428.308 85.0142C428.106 84.8409 427.855 84.7543 427.554 84.7543C427.25 84.7543 426.994 84.8409 426.787 85.0142C426.582 85.1875 426.427 85.4233 426.322 85.7216C426.22 86.0199 426.169 86.3594 426.169 86.7401C426.169 87.1207 426.22 87.4602 426.322 87.7585C426.427 88.0568 426.582 88.2926 426.787 88.4659C426.994 88.6364 427.25 88.7216 427.554 88.7216ZM431.947 90V83.4545H433.677V84.6094H433.754C433.89 84.2259 434.118 83.9233 434.436 83.7017C434.754 83.4801 435.135 83.3693 435.578 83.3693C436.027 83.3693 436.409 83.4815 436.724 83.706C437.039 83.9276 437.25 84.2287 437.355 84.6094H437.423C437.556 84.2344 437.798 83.9347 438.147 83.7102C438.5 83.483 438.916 83.3693 439.396 83.3693C440.007 83.3693 440.502 83.5639 440.883 83.9531C441.267 84.3395 441.458 84.8878 441.458 85.598V90H439.647V85.956C439.647 85.5923 439.551 85.3196 439.358 85.1378C439.164 84.956 438.923 84.8651 438.633 84.8651C438.304 84.8651 438.047 84.9702 437.862 85.1804C437.677 85.3878 437.585 85.6619 437.585 86.0028V90H435.825V85.9176C435.825 85.5966 435.733 85.3409 435.548 85.1506C435.366 84.9602 435.126 84.8651 434.828 84.8651C434.626 84.8651 434.444 84.9162 434.282 85.0185C434.123 85.1179 433.997 85.2585 433.903 85.4403C433.809 85.6193 433.762 85.8295 433.762 86.071V90H431.947ZM444.759 90.1236C444.341 90.1236 443.969 90.0511 443.642 89.9062C443.316 89.7585 443.057 89.5412 442.867 89.2543C442.679 88.9645 442.586 88.6037 442.586 88.1719C442.586 87.8082 442.652 87.5028 442.786 87.2557C442.919 87.0085 443.101 86.8097 443.331 86.6591C443.561 86.5085 443.823 86.3949 444.115 86.3182C444.411 86.2415 444.721 86.1875 445.044 86.1562C445.425 86.1165 445.732 86.0795 445.965 86.0455C446.198 86.0085 446.367 85.9545 446.472 85.8835C446.577 85.8125 446.63 85.7074 446.63 85.5682V85.5426C446.63 85.2727 446.544 85.0639 446.374 84.9162C446.206 84.7685 445.968 84.6946 445.658 84.6946C445.331 84.6946 445.071 84.767 444.878 84.9119C444.685 85.054 444.557 85.233 444.495 85.4489L442.816 85.3125C442.901 84.9148 443.069 84.571 443.319 84.2812C443.569 83.9886 443.891 83.7642 444.286 83.608C444.684 83.4489 445.144 83.3693 445.667 83.3693C446.03 83.3693 446.378 83.4119 446.711 83.4972C447.046 83.5824 447.343 83.7145 447.601 83.8935C447.863 84.0724 448.069 84.3026 448.219 84.5838C448.37 84.8622 448.445 85.196 448.445 85.5852V90H446.723V89.0923H446.672C446.567 89.2969 446.426 89.4773 446.25 89.6335C446.074 89.7869 445.863 89.9077 445.615 89.9957C445.368 90.081 445.083 90.1236 444.759 90.1236ZM445.279 88.8707C445.546 88.8707 445.782 88.8182 445.986 88.7131C446.191 88.6051 446.351 88.4602 446.468 88.2784C446.584 88.0966 446.642 87.8906 446.642 87.6605V86.9659C446.586 87.0028 446.507 87.0369 446.408 87.0682C446.311 87.0966 446.202 87.1236 446.08 87.1491C445.958 87.1719 445.836 87.1932 445.713 87.2131C445.591 87.2301 445.48 87.2457 445.381 87.2599C445.168 87.2912 444.982 87.3409 444.823 87.4091C444.664 87.4773 444.54 87.5696 444.452 87.6861C444.364 87.7997 444.32 87.9418 444.32 88.1122C444.32 88.3594 444.409 88.5483 444.588 88.679C444.77 88.8068 445 88.8707 445.279 88.8707ZM455.043 90.1065C454.545 90.1065 454.095 89.9787 453.692 89.723C453.291 89.4645 452.973 89.0852 452.737 88.5852C452.504 88.0824 452.388 87.4659 452.388 86.7358C452.388 85.9858 452.509 85.3622 452.75 84.8651C452.991 84.3651 453.313 83.9915 453.713 83.7443C454.116 83.4943 454.558 83.3693 455.038 83.3693C455.405 83.3693 455.71 83.4318 455.955 83.5568C456.202 83.679 456.401 83.8324 456.551 84.017C456.705 84.1989 456.821 84.3778 456.901 84.554H456.956V81.2727H458.767V90H456.977V88.9517H456.901C456.815 89.1335 456.695 89.3139 456.538 89.4929C456.385 89.669 456.185 89.8153 455.938 89.9318C455.693 90.0483 455.395 90.1065 455.043 90.1065ZM455.618 88.6619C455.911 88.6619 456.158 88.5824 456.359 88.4233C456.564 88.2614 456.72 88.0355 456.828 87.7457C456.939 87.456 456.994 87.1165 456.994 86.7273C456.994 86.3381 456.94 86 456.832 85.7131C456.724 85.4261 456.568 85.2045 456.364 85.0483C456.159 84.892 455.911 84.8139 455.618 84.8139C455.32 84.8139 455.068 84.8949 454.864 85.0568C454.659 85.2187 454.504 85.4432 454.399 85.7301C454.294 86.017 454.241 86.3494 454.241 86.7273C454.241 87.108 454.294 87.4446 454.399 87.7372C454.507 88.027 454.662 88.2543 454.864 88.419C455.068 88.581 455.32 88.6619 455.618 88.6619ZM463.243 90.1278C462.569 90.1278 461.99 89.9915 461.504 89.7188C461.021 89.4432 460.649 89.054 460.387 88.5511C460.126 88.0455 459.995 87.4474 459.995 86.7571C459.995 86.0838 460.126 85.4929 460.387 84.9844C460.649 84.4759 461.017 84.0795 461.491 83.7955C461.968 83.5114 462.528 83.3693 463.17 83.3693C463.602 83.3693 464.004 83.4389 464.376 83.5781C464.751 83.7145 465.078 83.9205 465.356 84.196C465.637 84.4716 465.856 84.8182 466.012 85.2358C466.169 85.6506 466.247 86.1364 466.247 86.6932V87.1918H460.72V86.0668H464.538C464.538 85.8054 464.481 85.5739 464.368 85.3722C464.254 85.1705 464.096 85.0128 463.895 84.8991C463.696 84.7827 463.464 84.7244 463.2 84.7244C462.924 84.7244 462.68 84.7884 462.467 84.9162C462.257 85.0412 462.092 85.2102 461.973 85.4233C461.853 85.6335 461.792 85.8679 461.789 86.1264V87.196C461.789 87.5199 461.849 87.7997 461.968 88.0355C462.091 88.2713 462.262 88.4531 462.484 88.581C462.706 88.7088 462.968 88.7727 463.272 88.7727C463.474 88.7727 463.659 88.7443 463.826 88.6875C463.994 88.6307 464.137 88.5455 464.257 88.4318C464.376 88.3182 464.467 88.179 464.529 88.0142L466.208 88.125C466.123 88.5284 465.949 88.8807 465.684 89.1818C465.423 89.4801 465.085 89.7131 464.67 89.8807C464.258 90.0455 463.782 90.1278 463.243 90.1278ZM470.243 90V81.2727H473.686C474.348 81.2727 474.912 81.3991 475.378 81.652C475.844 81.902 476.199 82.25 476.443 82.696C476.69 83.1392 476.814 83.6506 476.814 84.2301C476.814 84.8097 476.689 85.321 476.439 85.7642C476.189 86.2074 475.827 86.5526 475.352 86.7997C474.881 87.0469 474.31 87.1705 473.639 87.1705H471.445V85.6918H473.341C473.696 85.6918 473.989 85.6307 474.219 85.5085C474.452 85.3835 474.625 85.2116 474.739 84.9929C474.855 84.7713 474.913 84.517 474.913 84.2301C474.913 83.9403 474.855 83.6875 474.739 83.4716C474.625 83.2528 474.452 83.0838 474.219 82.9645C473.986 82.8423 473.69 82.7812 473.332 82.7812H472.088V90H470.243ZM477.978 90V83.4545H479.738V84.5966H479.806C479.926 84.1903 480.126 83.8835 480.407 83.6761C480.689 83.4659 481.012 83.3608 481.379 83.3608C481.47 83.3608 481.568 83.3665 481.673 83.3778C481.778 83.3892 481.87 83.4048 481.95 83.4247V85.0355C481.865 85.0099 481.747 84.9872 481.596 84.9673C481.446 84.9474 481.308 84.9375 481.183 84.9375C480.916 84.9375 480.677 84.9957 480.467 85.1122C480.26 85.2259 480.095 85.3849 479.973 85.5895C479.853 85.794 479.794 86.0298 479.794 86.2969V90H477.978ZM485.541 90.1278C484.879 90.1278 484.307 89.9872 483.824 89.706C483.344 89.4219 482.973 89.027 482.712 88.5213C482.45 88.0128 482.32 87.4233 482.32 86.7528C482.32 86.0767 482.45 85.4858 482.712 84.9801C482.973 84.4716 483.344 84.0767 483.824 83.7955C484.307 83.5114 484.879 83.3693 485.541 83.3693C486.203 83.3693 486.774 83.5114 487.254 83.7955C487.737 84.0767 488.109 84.4716 488.371 84.9801C488.632 85.4858 488.763 86.0767 488.763 86.7528C488.763 87.4233 488.632 88.0128 488.371 88.5213C488.109 89.027 487.737 89.4219 487.254 89.706C486.774 89.9872 486.203 90.1278 485.541 90.1278ZM485.55 88.7216C485.851 88.7216 486.102 88.6364 486.304 88.4659C486.506 88.2926 486.658 88.0568 486.76 87.7585C486.865 87.4602 486.918 87.1207 486.918 86.7401C486.918 86.3594 486.865 86.0199 486.76 85.7216C486.658 85.4233 486.506 85.1875 486.304 85.0142C486.102 84.8409 485.851 84.7543 485.55 84.7543C485.246 84.7543 484.99 84.8409 484.783 85.0142C484.578 85.1875 484.423 85.4233 484.318 85.7216C484.216 86.0199 484.165 86.3594 484.165 86.7401C484.165 87.1207 484.216 87.4602 484.318 87.7585C484.423 88.0568 484.578 88.2926 484.783 88.4659C484.99 88.6364 485.246 88.7216 485.55 88.7216ZM493.463 83.4545V84.8182H489.423V83.4545H493.463ZM490.348 90V82.9815C490.348 82.5071 490.44 82.1136 490.625 81.8011C490.812 81.4886 491.068 81.2543 491.392 81.098C491.716 80.9418 492.084 80.8636 492.496 80.8636C492.774 80.8636 493.028 80.8849 493.259 80.9276C493.491 80.9702 493.665 81.0085 493.778 81.0426L493.455 82.4062C493.384 82.3835 493.295 82.3622 493.19 82.3423C493.088 82.3224 492.983 82.3125 492.875 82.3125C492.608 82.3125 492.422 82.375 492.317 82.5C492.212 82.6222 492.159 82.794 492.159 83.0156V90H490.348ZM494.572 90V83.4545H496.387V90H494.572ZM495.484 82.6108C495.214 82.6108 494.983 82.5213 494.789 82.3423C494.599 82.1605 494.504 81.9432 494.504 81.6903C494.504 81.4403 494.599 81.2259 494.789 81.0469C494.983 80.8651 495.214 80.7741 495.484 80.7741C495.754 80.7741 495.984 80.8651 496.174 81.0469C496.368 81.2259 496.464 81.4403 496.464 81.6903C496.464 81.9432 496.368 82.1605 496.174 82.3423C495.984 82.5213 495.754 82.6108 495.484 82.6108ZM501.323 83.4545V84.8182H497.381V83.4545H501.323ZM498.276 81.8864H500.092V87.9886C500.092 88.1562 500.117 88.2869 500.168 88.3807C500.219 88.4716 500.29 88.5355 500.381 88.5724C500.475 88.6094 500.583 88.6278 500.705 88.6278C500.79 88.6278 500.876 88.6207 500.961 88.6065C501.046 88.5895 501.112 88.5767 501.157 88.5682L501.442 89.919C501.352 89.9474 501.224 89.9801 501.059 90.017C500.894 90.0568 500.694 90.081 500.458 90.0895C500.021 90.1065 499.637 90.0483 499.308 89.9148C498.981 89.7812 498.727 89.5739 498.545 89.2926C498.363 89.0114 498.273 88.6562 498.276 88.2273V81.8864ZM505.283 92.4545V83.4545H507.073V84.554H507.154C507.233 84.3778 507.348 84.1989 507.499 84.017C507.652 83.8324 507.851 83.679 508.096 83.5568C508.343 83.4318 508.65 83.3693 509.016 83.3693C509.493 83.3693 509.934 83.4943 510.337 83.7443C510.74 83.9915 511.063 84.3651 511.304 84.8651C511.546 85.3622 511.667 85.9858 511.667 86.7358C511.667 87.4659 511.549 88.0824 511.313 88.5852C511.08 89.0852 510.762 89.4645 510.358 89.723C509.958 89.9787 509.509 90.1065 509.012 90.1065C508.659 90.1065 508.36 90.0483 508.113 89.9318C507.868 89.8153 507.668 89.669 507.512 89.4929C507.355 89.3139 507.236 89.1335 507.154 88.9517H507.098V92.4545H505.283ZM507.06 86.7273C507.06 87.1165 507.114 87.456 507.222 87.7457C507.33 88.0355 507.486 88.2614 507.691 88.4233C507.895 88.5824 508.144 88.6619 508.436 88.6619C508.732 88.6619 508.982 88.581 509.186 88.419C509.391 88.2543 509.546 88.027 509.651 87.7372C509.759 87.4446 509.813 87.108 509.813 86.7273C509.813 86.3494 509.76 86.017 509.655 85.7301C509.55 85.4432 509.395 85.2187 509.191 85.0568C508.986 84.8949 508.735 84.8139 508.436 84.8139C508.141 84.8139 507.891 84.892 507.686 85.0483C507.485 85.2045 507.33 85.4261 507.222 85.7131C507.114 86 507.06 86.3381 507.06 86.7273ZM515.834 90.1278C515.172 90.1278 514.6 89.9872 514.117 89.706C513.637 89.4219 513.266 89.027 513.005 88.5213C512.743 88.0128 512.613 87.4233 512.613 86.7528C512.613 86.0767 512.743 85.4858 513.005 84.9801C513.266 84.4716 513.637 84.0767 514.117 83.7955C514.6 83.5114 515.172 83.3693 515.834 83.3693C516.496 83.3693 517.067 83.5114 517.547 83.7955C518.03 84.0767 518.402 84.4716 518.664 84.9801C518.925 85.4858 519.056 86.0767 519.056 86.7528C519.056 87.4233 518.925 88.0128 518.664 88.5213C518.402 89.027 518.03 89.4219 517.547 89.706C517.067 89.9872 516.496 90.1278 515.834 90.1278ZM515.843 88.7216C516.144 88.7216 516.395 88.6364 516.597 88.4659C516.799 88.2926 516.951 88.0568 517.053 87.7585C517.158 87.4602 517.211 87.1207 517.211 86.7401C517.211 86.3594 517.158 86.0199 517.053 85.7216C516.951 85.4233 516.799 85.1875 516.597 85.0142C516.395 84.8409 516.144 84.7543 515.843 84.7543C515.539 84.7543 515.283 84.8409 515.076 85.0142C514.871 85.1875 514.716 85.4233 514.611 85.7216C514.509 86.0199 514.458 86.3594 514.458 86.7401C514.458 87.1207 514.509 87.4602 514.611 87.7585C514.716 88.0568 514.871 88.2926 515.076 88.4659C515.283 88.6364 515.539 88.7216 515.843 88.7216ZM520.236 90V83.4545H521.996V84.5966H522.064C522.184 84.1903 522.384 83.8835 522.665 83.6761C522.946 83.4659 523.27 83.3608 523.637 83.3608C523.728 83.3608 523.826 83.3665 523.931 83.3778C524.036 83.3892 524.128 83.4048 524.208 83.4247V85.0355C524.123 85.0099 524.005 84.9872 523.854 84.9673C523.703 84.9474 523.566 84.9375 523.441 84.9375C523.174 84.9375 522.935 84.9957 522.725 85.1122C522.517 85.2259 522.353 85.3849 522.23 85.5895C522.111 85.794 522.051 86.0298 522.051 86.2969V90H520.236ZM527.958 90V81.2727H531.401C532.063 81.2727 532.627 81.3991 533.093 81.652C533.559 81.902 533.914 82.25 534.158 82.696C534.405 83.1392 534.529 83.6506 534.529 84.2301C534.529 84.8097 534.404 85.321 534.154 85.7642C533.904 86.2074 533.542 86.5526 533.067 86.7997C532.596 87.0469 532.025 87.1705 531.354 87.1705H529.159V85.6918H531.056C531.411 85.6918 531.703 85.6307 531.934 85.5085C532.167 85.3835 532.34 85.2116 532.453 84.9929C532.57 84.7713 532.628 84.517 532.628 84.2301C532.628 83.9403 532.57 83.6875 532.453 83.4716C532.34 83.2528 532.167 83.0838 531.934 82.9645C531.701 82.8423 531.405 82.7812 531.047 82.7812H529.803V90H527.958ZM535.693 90V83.4545H537.453V84.5966H537.521C537.641 84.1903 537.841 83.8835 538.122 83.6761C538.403 83.4659 538.727 83.3608 539.094 83.3608C539.185 83.3608 539.283 83.3665 539.388 83.3778C539.493 83.3892 539.585 83.4048 539.665 83.4247V85.0355C539.58 85.0099 539.462 84.9872 539.311 84.9673C539.161 84.9474 539.023 84.9375 538.898 84.9375C538.631 84.9375 538.392 84.9957 538.182 85.1122C537.974 85.2259 537.81 85.3849 537.688 85.5895C537.568 85.794 537.509 86.0298 537.509 86.2969V90H535.693ZM543.256 90.1278C542.594 90.1278 542.022 89.9872 541.539 89.706C541.059 89.4219 540.688 89.027 540.426 88.5213C540.165 88.0128 540.034 87.4233 540.034 86.7528C540.034 86.0767 540.165 85.4858 540.426 84.9801C540.688 84.4716 541.059 84.0767 541.539 83.7955C542.022 83.5114 542.594 83.3693 543.256 83.3693C543.918 83.3693 544.489 83.5114 544.969 83.7955C545.452 84.0767 545.824 84.4716 546.086 84.9801C546.347 85.4858 546.478 86.0767 546.478 86.7528C546.478 87.4233 546.347 88.0128 546.086 88.5213C545.824 89.027 545.452 89.4219 544.969 89.706C544.489 89.9872 543.918 90.1278 543.256 90.1278ZM543.265 88.7216C543.566 88.7216 543.817 88.6364 544.019 88.4659C544.221 88.2926 544.373 88.0568 544.475 87.7585C544.58 87.4602 544.632 87.1207 544.632 86.7401C544.632 86.3594 544.58 86.0199 544.475 85.7216C544.373 85.4233 544.221 85.1875 544.019 85.0142C543.817 84.8409 543.566 84.7543 543.265 84.7543C542.961 84.7543 542.705 84.8409 542.498 85.0142C542.293 85.1875 542.138 85.4233 542.033 85.7216C541.931 86.0199 541.88 86.3594 541.88 86.7401C541.88 87.1207 541.931 87.4602 542.033 87.7585C542.138 88.0568 542.293 88.2926 542.498 88.4659C542.705 88.6364 542.961 88.7216 543.265 88.7216ZM550.07 90.1065C549.573 90.1065 549.123 89.9787 548.719 89.723C548.319 89.4645 548 89.0852 547.765 88.5852C547.532 88.0824 547.415 87.4659 547.415 86.7358C547.415 85.9858 547.536 85.3622 547.777 84.8651C548.019 84.3651 548.34 83.9915 548.74 83.7443C549.144 83.4943 549.586 83.3693 550.066 83.3693C550.432 83.3693 550.738 83.4318 550.982 83.5568C551.229 83.679 551.428 83.8324 551.578 84.017C551.732 84.1989 551.848 84.3778 551.928 84.554H551.983V81.2727H553.794V90H552.005V88.9517H551.928C551.843 89.1335 551.722 89.3139 551.566 89.4929C551.412 89.669 551.212 89.8153 550.965 89.9318C550.721 90.0483 550.422 90.1065 550.07 90.1065ZM550.645 88.6619C550.938 88.6619 551.185 88.5824 551.387 88.4233C551.591 88.2614 551.748 88.0355 551.855 87.7457C551.966 87.456 552.022 87.1165 552.022 86.7273C552.022 86.3381 551.968 86 551.86 85.7131C551.752 85.4261 551.596 85.2045 551.391 85.0483C551.186 84.892 550.938 84.8139 550.645 84.8139C550.347 84.8139 550.096 84.8949 549.891 85.0568C549.686 85.2187 549.532 85.4432 549.426 85.7301C549.321 86.017 549.269 86.3494 549.269 86.7273C549.269 87.108 549.321 87.4446 549.426 87.7372C549.534 88.027 549.689 88.2543 549.891 88.419C550.096 88.581 550.347 88.6619 550.645 88.6619ZM559.484 87.2131V83.4545H561.3V90H559.557V88.8111H559.489C559.341 89.1946 559.095 89.5028 558.751 89.7358C558.411 89.9687 557.994 90.0852 557.503 90.0852C557.065 90.0852 556.68 89.9858 556.348 89.7869C556.016 89.5881 555.756 89.3054 555.568 88.9389C555.384 88.5724 555.29 88.1335 555.287 87.6222V83.4545H557.102V87.2983C557.105 87.6847 557.209 87.9901 557.413 88.2145C557.618 88.4389 557.892 88.5511 558.236 88.5511C558.455 88.5511 558.659 88.5014 558.849 88.402C559.04 88.2997 559.193 88.1491 559.31 87.9503C559.429 87.7514 559.487 87.5057 559.484 87.2131ZM565.709 90.1278C565.039 90.1278 564.462 89.9858 563.979 89.7017C563.499 89.4148 563.13 89.017 562.871 88.5085C562.615 88 562.488 87.4148 562.488 86.7528C562.488 86.0824 562.617 85.4943 562.875 84.9886C563.137 84.4801 563.507 84.0838 563.988 83.7997C564.468 83.5128 565.039 83.3693 565.701 83.3693C566.272 83.3693 566.772 83.473 567.201 83.6804C567.63 83.8878 567.969 84.179 568.219 84.554C568.469 84.929 568.607 85.3693 568.632 85.875H566.919C566.871 85.5483 566.743 85.2855 566.536 85.0866C566.331 84.8849 566.063 84.7841 565.73 84.7841C565.449 84.7841 565.203 84.8608 564.993 85.0142C564.786 85.1648 564.624 85.3849 564.507 85.6747C564.391 85.9645 564.333 86.3153 564.333 86.7273C564.333 87.1449 564.39 87.5 564.503 87.7926C564.62 88.0852 564.783 88.3082 564.993 88.4616C565.203 88.6151 565.449 88.6918 565.73 88.6918C565.938 88.6918 566.124 88.6491 566.289 88.5639C566.456 88.4787 566.594 88.3551 566.702 88.1932C566.813 88.0284 566.885 87.831 566.919 87.6009H568.632C568.604 88.1009 568.468 88.5412 568.223 88.9219C567.982 89.2997 567.648 89.5952 567.222 89.8082C566.796 90.0213 566.292 90.1278 565.709 90.1278ZM573.276 83.4545V84.8182H569.335V83.4545H573.276ZM570.229 81.8864H572.045V87.9886C572.045 88.1562 572.07 88.2869 572.121 88.3807C572.173 88.4716 572.244 88.5355 572.335 88.5724C572.428 88.6094 572.536 88.6278 572.658 88.6278C572.744 88.6278 572.829 88.6207 572.914 88.6065C572.999 88.5895 573.065 88.5767 573.11 88.5682L573.396 89.919C573.305 89.9474 573.177 89.9801 573.012 90.017C572.847 90.0568 572.647 90.081 572.411 90.0895C571.974 90.1065 571.59 90.0483 571.261 89.9148C570.934 89.7812 570.68 89.5739 570.498 89.2926C570.316 89.0114 570.227 88.6562 570.229 88.2273V81.8864Z" fill="black"/>
<path d="M675.493 83.7827C675.459 83.4389 675.313 83.1719 675.054 82.9815C674.795 82.7912 674.445 82.696 674.001 82.696C673.7 82.696 673.446 82.7386 673.239 82.8239C673.031 82.9062 672.872 83.0213 672.761 83.169C672.653 83.3168 672.599 83.4844 672.599 83.6719C672.594 83.8281 672.626 83.9645 672.697 84.081C672.771 84.1974 672.872 84.2983 673 84.3835C673.128 84.4659 673.276 84.5384 673.443 84.6009C673.611 84.6605 673.79 84.7116 673.98 84.7543L674.764 84.9418C675.145 85.027 675.494 85.1406 675.812 85.2827C676.131 85.4247 676.406 85.5994 676.639 85.8068C676.872 86.0142 677.053 86.2585 677.18 86.5398C677.311 86.821 677.378 87.1435 677.381 87.5071C677.378 88.0412 677.241 88.5043 676.972 88.8963C676.705 89.2855 676.318 89.5881 675.812 89.804C675.31 90.017 674.703 90.1236 673.993 90.1236C673.288 90.1236 672.675 90.0156 672.152 89.7997C671.632 89.5838 671.226 89.2642 670.933 88.8409C670.643 88.4148 670.491 87.8878 670.477 87.2599H672.263C672.283 87.5526 672.366 87.7969 672.514 87.9929C672.665 88.1861 672.865 88.3324 673.115 88.4318C673.368 88.5284 673.653 88.5767 673.972 88.5767C674.284 88.5767 674.555 88.5312 674.786 88.4403C675.018 88.3494 675.199 88.223 675.327 88.0611C675.455 87.8991 675.518 87.7131 675.518 87.5028C675.518 87.3068 675.46 87.142 675.344 87.0085C675.23 86.875 675.063 86.7614 674.841 86.6676C674.622 86.5739 674.354 86.4886 674.036 86.4119L673.085 86.1733C672.349 85.9943 671.768 85.7145 671.342 85.3338C670.916 84.9531 670.705 84.4403 670.707 83.7955C670.705 83.267 670.845 82.8054 671.129 82.4105C671.416 82.0156 671.81 81.7074 672.31 81.4858C672.81 81.2642 673.378 81.1534 674.014 81.1534C674.662 81.1534 675.227 81.2642 675.71 81.4858C676.196 81.7074 676.574 82.0156 676.844 82.4105C677.114 82.8054 677.253 83.2628 677.261 83.7827H675.493ZM681.545 90.1278C680.883 90.1278 680.311 89.9872 679.828 89.706C679.348 89.4219 678.977 89.027 678.716 88.5213C678.454 88.0128 678.324 87.4233 678.324 86.7528C678.324 86.0767 678.454 85.4858 678.716 84.9801C678.977 84.4716 679.348 84.0767 679.828 83.7955C680.311 83.5114 680.883 83.3693 681.545 83.3693C682.207 83.3693 682.778 83.5114 683.258 83.7955C683.741 84.0767 684.113 84.4716 684.375 84.9801C684.636 85.4858 684.767 86.0767 684.767 86.7528C684.767 87.4233 684.636 88.0128 684.375 88.5213C684.113 89.027 683.741 89.4219 683.258 89.706C682.778 89.9872 682.207 90.1278 681.545 90.1278ZM681.554 88.7216C681.855 88.7216 682.106 88.6364 682.308 88.4659C682.51 88.2926 682.662 88.0568 682.764 87.7585C682.869 87.4602 682.922 87.1207 682.922 86.7401C682.922 86.3594 682.869 86.0199 682.764 85.7216C682.662 85.4233 682.51 85.1875 682.308 85.0142C682.106 84.8409 681.855 84.7543 681.554 84.7543C681.25 84.7543 680.994 84.8409 680.787 85.0142C680.582 85.1875 680.427 85.4233 680.322 85.7216C680.22 86.0199 680.169 86.3594 680.169 86.7401C680.169 87.1207 680.22 87.4602 680.322 87.7585C680.427 88.0568 680.582 88.2926 680.787 88.4659C680.994 88.6364 681.25 88.7216 681.554 88.7216ZM685.947 90V83.4545H687.677V84.6094H687.754C687.89 84.2259 688.118 83.9233 688.436 83.7017C688.754 83.4801 689.135 83.3693 689.578 83.3693C690.027 83.3693 690.409 83.4815 690.724 83.706C691.039 83.9276 691.25 84.2287 691.355 84.6094H691.423C691.556 84.2344 691.798 83.9347 692.147 83.7102C692.5 83.483 692.916 83.3693 693.396 83.3693C694.007 83.3693 694.502 83.5639 694.883 83.9531C695.267 84.3395 695.458 84.8878 695.458 85.598V90H693.647V85.956C693.647 85.5923 693.551 85.3196 693.358 85.1378C693.164 84.956 692.923 84.8651 692.633 84.8651C692.304 84.8651 692.047 84.9702 691.862 85.1804C691.677 85.3878 691.585 85.6619 691.585 86.0028V90H689.825V85.9176C689.825 85.5966 689.733 85.3409 689.548 85.1506C689.366 84.9602 689.126 84.8651 688.828 84.8651C688.626 84.8651 688.444 84.9162 688.282 85.0185C688.123 85.1179 687.997 85.2585 687.903 85.4403C687.809 85.6193 687.762 85.8295 687.762 86.071V90H685.947ZM698.759 90.1236C698.341 90.1236 697.969 90.0511 697.642 89.9062C697.316 89.7585 697.057 89.5412 696.867 89.2543C696.679 88.9645 696.586 88.6037 696.586 88.1719C696.586 87.8082 696.652 87.5028 696.786 87.2557C696.919 87.0085 697.101 86.8097 697.331 86.6591C697.561 86.5085 697.823 86.3949 698.115 86.3182C698.411 86.2415 698.721 86.1875 699.044 86.1562C699.425 86.1165 699.732 86.0795 699.965 86.0455C700.198 86.0085 700.367 85.9545 700.472 85.8835C700.577 85.8125 700.63 85.7074 700.63 85.5682V85.5426C700.63 85.2727 700.544 85.0639 700.374 84.9162C700.206 84.7685 699.968 84.6946 699.658 84.6946C699.331 84.6946 699.071 84.767 698.878 84.9119C698.685 85.054 698.557 85.233 698.495 85.4489L696.816 85.3125C696.901 84.9148 697.069 84.571 697.319 84.2812C697.569 83.9886 697.891 83.7642 698.286 83.608C698.684 83.4489 699.144 83.3693 699.667 83.3693C700.03 83.3693 700.378 83.4119 700.711 83.4972C701.046 83.5824 701.343 83.7145 701.601 83.8935C701.863 84.0724 702.069 84.3026 702.219 84.5838C702.37 84.8622 702.445 85.196 702.445 85.5852V90H700.723V89.0923H700.672C700.567 89.2969 700.426 89.4773 700.25 89.6335C700.074 89.7869 699.863 89.9077 699.615 89.9957C699.368 90.081 699.083 90.1236 698.759 90.1236ZM699.279 88.8707C699.546 88.8707 699.782 88.8182 699.986 88.7131C700.191 88.6051 700.351 88.4602 700.468 88.2784C700.584 88.0966 700.642 87.8906 700.642 87.6605V86.9659C700.586 87.0028 700.507 87.0369 700.408 87.0682C700.311 87.0966 700.202 87.1236 700.08 87.1491C699.958 87.1719 699.836 87.1932 699.713 87.2131C699.591 87.2301 699.48 87.2457 699.381 87.2599C699.168 87.2912 698.982 87.3409 698.823 87.4091C698.664 87.4773 698.54 87.5696 698.452 87.6861C698.364 87.7997 698.32 87.9418 698.32 88.1122C698.32 88.3594 698.409 88.5483 698.588 88.679C698.77 88.8068 699 88.8707 699.279 88.8707ZM709.043 90.1065C708.545 90.1065 708.095 89.9787 707.692 89.723C707.291 89.4645 706.973 89.0852 706.737 88.5852C706.504 88.0824 706.388 87.4659 706.388 86.7358C706.388 85.9858 706.509 85.3622 706.75 84.8651C706.991 84.3651 707.313 83.9915 707.713 83.7443C708.116 83.4943 708.558 83.3693 709.038 83.3693C709.405 83.3693 709.71 83.4318 709.955 83.5568C710.202 83.679 710.401 83.8324 710.551 84.017C710.705 84.1989 710.821 84.3778 710.901 84.554H710.956V81.2727H712.767V90H710.977V88.9517H710.901C710.815 89.1335 710.695 89.3139 710.538 89.4929C710.385 89.669 710.185 89.8153 709.938 89.9318C709.693 90.0483 709.395 90.1065 709.043 90.1065ZM709.618 88.6619C709.911 88.6619 710.158 88.5824 710.359 88.4233C710.564 88.2614 710.72 88.0355 710.828 87.7457C710.939 87.456 710.994 87.1165 710.994 86.7273C710.994 86.3381 710.94 86 710.832 85.7131C710.724 85.4261 710.568 85.2045 710.364 85.0483C710.159 84.892 709.911 84.8139 709.618 84.8139C709.32 84.8139 709.068 84.8949 708.864 85.0568C708.659 85.2187 708.504 85.4432 708.399 85.7301C708.294 86.017 708.241 86.3494 708.241 86.7273C708.241 87.108 708.294 87.4446 708.399 87.7372C708.507 88.027 708.662 88.2543 708.864 88.419C709.068 88.581 709.32 88.6619 709.618 88.6619ZM717.243 90.1278C716.569 90.1278 715.99 89.9915 715.504 89.7188C715.021 89.4432 714.649 89.054 714.387 88.5511C714.126 88.0455 713.995 87.4474 713.995 86.7571C713.995 86.0838 714.126 85.4929 714.387 84.9844C714.649 84.4759 715.017 84.0795 715.491 83.7955C715.968 83.5114 716.528 83.3693 717.17 83.3693C717.602 83.3693 718.004 83.4389 718.376 83.5781C718.751 83.7145 719.078 83.9205 719.356 84.196C719.637 84.4716 719.856 84.8182 720.012 85.2358C720.169 85.6506 720.247 86.1364 720.247 86.6932V87.1918H714.72V86.0668H718.538C718.538 85.8054 718.481 85.5739 718.368 85.3722C718.254 85.1705 718.096 85.0128 717.895 84.8991C717.696 84.7827 717.464 84.7244 717.2 84.7244C716.924 84.7244 716.68 84.7884 716.467 84.9162C716.257 85.0412 716.092 85.2102 715.973 85.4233C715.853 85.6335 715.792 85.8679 715.789 86.1264V87.196C715.789 87.5199 715.849 87.7997 715.968 88.0355C716.091 88.2713 716.262 88.4531 716.484 88.581C716.706 88.7088 716.968 88.7727 717.272 88.7727C717.474 88.7727 717.659 88.7443 717.826 88.6875C717.994 88.6307 718.137 88.5455 718.257 88.4318C718.376 88.3182 718.467 88.179 718.529 88.0142L720.208 88.125C720.123 88.5284 719.949 88.8807 719.684 89.1818C719.423 89.4801 719.085 89.7131 718.67 89.8807C718.258 90.0455 717.782 90.1278 717.243 90.1278ZM724.243 90V81.2727H727.686C728.348 81.2727 728.912 81.3991 729.378 81.652C729.844 81.902 730.199 82.25 730.443 82.696C730.69 83.1392 730.814 83.6506 730.814 84.2301C730.814 84.8097 730.689 85.321 730.439 85.7642C730.189 86.2074 729.827 86.5526 729.352 86.7997C728.881 87.0469 728.31 87.1705 727.639 87.1705H725.445V85.6918H727.341C727.696 85.6918 727.989 85.6307 728.219 85.5085C728.452 85.3835 728.625 85.2116 728.739 84.9929C728.855 84.7713 728.913 84.517 728.913 84.2301C728.913 83.9403 728.855 83.6875 728.739 83.4716C728.625 83.2528 728.452 83.0838 728.219 82.9645C727.986 82.8423 727.69 82.7812 727.332 82.7812H726.088V90H724.243ZM731.978 90V83.4545H733.738V84.5966H733.806C733.926 84.1903 734.126 83.8835 734.407 83.6761C734.689 83.4659 735.012 83.3608 735.379 83.3608C735.47 83.3608 735.568 83.3665 735.673 83.3778C735.778 83.3892 735.87 83.4048 735.95 83.4247V85.0355C735.865 85.0099 735.747 84.9872 735.596 84.9673C735.446 84.9474 735.308 84.9375 735.183 84.9375C734.916 84.9375 734.677 84.9957 734.467 85.1122C734.26 85.2259 734.095 85.3849 733.973 85.5895C733.853 85.794 733.794 86.0298 733.794 86.2969V90H731.978ZM739.541 90.1278C738.879 90.1278 738.307 89.9872 737.824 89.706C737.344 89.4219 736.973 89.027 736.712 88.5213C736.45 88.0128 736.32 87.4233 736.32 86.7528C736.32 86.0767 736.45 85.4858 736.712 84.9801C736.973 84.4716 737.344 84.0767 737.824 83.7955C738.307 83.5114 738.879 83.3693 739.541 83.3693C740.203 83.3693 740.774 83.5114 741.254 83.7955C741.737 84.0767 742.109 84.4716 742.371 84.9801C742.632 85.4858 742.763 86.0767 742.763 86.7528C742.763 87.4233 742.632 88.0128 742.371 88.5213C742.109 89.027 741.737 89.4219 741.254 89.706C740.774 89.9872 740.203 90.1278 739.541 90.1278ZM739.55 88.7216C739.851 88.7216 740.102 88.6364 740.304 88.4659C740.506 88.2926 740.658 88.0568 740.76 87.7585C740.865 87.4602 740.918 87.1207 740.918 86.7401C740.918 86.3594 740.865 86.0199 740.76 85.7216C740.658 85.4233 740.506 85.1875 740.304 85.0142C740.102 84.8409 739.851 84.7543 739.55 84.7543C739.246 84.7543 738.99 84.8409 738.783 85.0142C738.578 85.1875 738.423 85.4233 738.318 85.7216C738.216 86.0199 738.165 86.3594 738.165 86.7401C738.165 87.1207 738.216 87.4602 738.318 87.7585C738.423 88.0568 738.578 88.2926 738.783 88.4659C738.99 88.6364 739.246 88.7216 739.55 88.7216ZM747.463 83.4545V84.8182H743.423V83.4545H747.463ZM744.348 90V82.9815C744.348 82.5071 744.44 82.1136 744.625 81.8011C744.812 81.4886 745.068 81.2543 745.392 81.098C745.716 80.9418 746.084 80.8636 746.496 80.8636C746.774 80.8636 747.028 80.8849 747.259 80.9276C747.491 80.9702 747.665 81.0085 747.778 81.0426L747.455 82.4062C747.384 82.3835 747.295 82.3622 747.19 82.3423C747.088 82.3224 746.983 82.3125 746.875 82.3125C746.608 82.3125 746.422 82.375 746.317 82.5C746.212 82.6222 746.159 82.794 746.159 83.0156V90H744.348ZM748.572 90V83.4545H750.387V90H748.572ZM749.484 82.6108C749.214 82.6108 748.983 82.5213 748.789 82.3423C748.599 82.1605 748.504 81.9432 748.504 81.6903C748.504 81.4403 748.599 81.2259 748.789 81.0469C748.983 80.8651 749.214 80.7741 749.484 80.7741C749.754 80.7741 749.984 80.8651 750.174 81.0469C750.368 81.2259 750.464 81.4403 750.464 81.6903C750.464 81.9432 750.368 82.1605 750.174 82.3423C749.984 82.5213 749.754 82.6108 749.484 82.6108ZM755.323 83.4545V84.8182H751.381V83.4545H755.323ZM752.276 81.8864H754.092V87.9886C754.092 88.1562 754.117 88.2869 754.168 88.3807C754.219 88.4716 754.29 88.5355 754.381 88.5724C754.475 88.6094 754.583 88.6278 754.705 88.6278C754.79 88.6278 754.876 88.6207 754.961 88.6065C755.046 88.5895 755.112 88.5767 755.157 88.5682L755.442 89.919C755.352 89.9474 755.224 89.9801 755.059 90.017C754.894 90.0568 754.694 90.081 754.458 90.0895C754.021 90.1065 753.637 90.0483 753.308 89.9148C752.981 89.7812 752.727 89.5739 752.545 89.2926C752.363 89.0114 752.273 88.6562 752.276 88.2273V81.8864ZM759.283 92.4545V83.4545H761.073V84.554H761.154C761.233 84.3778 761.348 84.1989 761.499 84.017C761.652 83.8324 761.851 83.679 762.096 83.5568C762.343 83.4318 762.65 83.3693 763.016 83.3693C763.493 83.3693 763.934 83.4943 764.337 83.7443C764.74 83.9915 765.063 84.3651 765.304 84.8651C765.546 85.3622 765.667 85.9858 765.667 86.7358C765.667 87.4659 765.549 88.0824 765.313 88.5852C765.08 89.0852 764.762 89.4645 764.358 89.723C763.958 89.9787 763.509 90.1065 763.012 90.1065C762.659 90.1065 762.36 90.0483 762.113 89.9318C761.868 89.8153 761.668 89.669 761.512 89.4929C761.355 89.3139 761.236 89.1335 761.154 88.9517H761.098V92.4545H759.283ZM761.06 86.7273C761.06 87.1165 761.114 87.456 761.222 87.7457C761.33 88.0355 761.486 88.2614 761.691 88.4233C761.895 88.5824 762.144 88.6619 762.436 88.6619C762.732 88.6619 762.982 88.581 763.186 88.419C763.391 88.2543 763.546 88.027 763.651 87.7372C763.759 87.4446 763.813 87.108 763.813 86.7273C763.813 86.3494 763.76 86.017 763.655 85.7301C763.55 85.4432 763.395 85.2187 763.191 85.0568C762.986 84.8949 762.735 84.8139 762.436 84.8139C762.141 84.8139 761.891 84.892 761.686 85.0483C761.485 85.2045 761.33 85.4261 761.222 85.7131C761.114 86 761.06 86.3381 761.06 86.7273ZM769.834 90.1278C769.172 90.1278 768.6 89.9872 768.117 89.706C767.637 89.4219 767.266 89.027 767.005 88.5213C766.743 88.0128 766.613 87.4233 766.613 86.7528C766.613 86.0767 766.743 85.4858 767.005 84.9801C767.266 84.4716 767.637 84.0767 768.117 83.7955C768.6 83.5114 769.172 83.3693 769.834 83.3693C770.496 83.3693 771.067 83.5114 771.547 83.7955C772.03 84.0767 772.402 84.4716 772.664 84.9801C772.925 85.4858 773.056 86.0767 773.056 86.7528C773.056 87.4233 772.925 88.0128 772.664 88.5213C772.402 89.027 772.03 89.4219 771.547 89.706C771.067 89.9872 770.496 90.1278 769.834 90.1278ZM769.843 88.7216C770.144 88.7216 770.395 88.6364 770.597 88.4659C770.799 88.2926 770.951 88.0568 771.053 87.7585C771.158 87.4602 771.211 87.1207 771.211 86.7401C771.211 86.3594 771.158 86.0199 771.053 85.7216C770.951 85.4233 770.799 85.1875 770.597 85.0142C770.395 84.8409 770.144 84.7543 769.843 84.7543C769.539 84.7543 769.283 84.8409 769.076 85.0142C768.871 85.1875 768.716 85.4233 768.611 85.7216C768.509 86.0199 768.458 86.3594 768.458 86.7401C768.458 87.1207 768.509 87.4602 768.611 87.7585C768.716 88.0568 768.871 88.2926 769.076 88.4659C769.283 88.6364 769.539 88.7216 769.843 88.7216ZM774.236 90V83.4545H775.996V84.5966H776.064C776.184 84.1903 776.384 83.8835 776.665 83.6761C776.946 83.4659 777.27 83.3608 777.637 83.3608C777.728 83.3608 777.826 83.3665 777.931 83.3778C778.036 83.3892 778.128 83.4048 778.208 83.4247V85.0355C778.123 85.0099 778.005 84.9872 777.854 84.9673C777.703 84.9474 777.566 84.9375 777.441 84.9375C777.174 84.9375 776.935 84.9957 776.725 85.1122C776.517 85.2259 776.353 85.3849 776.23 85.5895C776.111 85.794 776.051 86.0298 776.051 86.2969V90H774.236ZM786.692 83.7827C786.658 83.4389 786.512 83.1719 786.253 82.9815C785.995 82.7912 785.644 82.696 785.201 82.696C784.9 82.696 784.645 82.7386 784.438 82.8239C784.23 82.9062 784.071 83.0213 783.961 83.169C783.853 83.3168 783.799 83.4844 783.799 83.6719C783.793 83.8281 783.826 83.9645 783.897 84.081C783.971 84.1974 784.071 84.2983 784.199 84.3835C784.327 84.4659 784.475 84.5384 784.642 84.6009C784.81 84.6605 784.989 84.7116 785.179 84.7543L785.963 84.9418C786.344 85.027 786.694 85.1406 787.012 85.2827C787.33 85.4247 787.605 85.5994 787.838 85.8068C788.071 86.0142 788.252 86.2585 788.38 86.5398C788.51 86.821 788.577 87.1435 788.58 87.5071C788.577 88.0412 788.441 88.5043 788.171 88.8963C787.904 89.2855 787.517 89.5881 787.012 89.804C786.509 90.017 785.902 90.1236 785.192 90.1236C784.488 90.1236 783.874 90.0156 783.351 89.7997C782.831 89.5838 782.425 89.2642 782.132 88.8409C781.843 88.4148 781.691 87.8878 781.676 87.2599H783.462C783.482 87.5526 783.566 87.7969 783.713 87.9929C783.864 88.1861 784.064 88.3324 784.314 88.4318C784.567 88.5284 784.853 88.5767 785.171 88.5767C785.483 88.5767 785.755 88.5312 785.985 88.4403C786.218 88.3494 786.398 88.223 786.526 88.0611C786.654 87.8991 786.718 87.7131 786.718 87.5028C786.718 87.3068 786.659 87.142 786.543 87.0085C786.429 86.875 786.262 86.7614 786.04 86.6676C785.821 86.5739 785.553 86.4886 785.235 86.4119L784.284 86.1733C783.549 85.9943 782.968 85.7145 782.542 85.3338C782.115 84.9531 781.904 84.4403 781.907 83.7955C781.904 83.267 782.044 82.8054 782.328 82.4105C782.615 82.0156 783.009 81.7074 783.509 81.4858C784.009 81.2642 784.577 81.1534 785.213 81.1534C785.861 81.1534 786.426 81.2642 786.909 81.4858C787.395 81.7074 787.773 82.0156 788.043 82.4105C788.313 82.8054 788.452 83.2628 788.461 83.7827H786.692ZM792.77 90.1278C792.097 90.1278 791.517 89.9915 791.031 89.7188C790.548 89.4432 790.176 89.054 789.915 88.5511C789.653 88.0455 789.523 87.4474 789.523 86.7571C789.523 86.0838 789.653 85.4929 789.915 84.9844C790.176 84.4759 790.544 84.0795 791.018 83.7955C791.496 83.5114 792.055 83.3693 792.697 83.3693C793.129 83.3693 793.531 83.4389 793.903 83.5781C794.278 83.7145 794.605 83.9205 794.884 84.196C795.165 84.4716 795.384 84.8182 795.54 85.2358C795.696 85.6506 795.774 86.1364 795.774 86.6932V87.1918H790.247V86.0668H794.065C794.065 85.8054 794.009 85.5739 793.895 85.3722C793.781 85.1705 793.624 85.0128 793.422 84.8991C793.223 84.7827 792.991 84.7244 792.727 84.7244C792.452 84.7244 792.207 84.7884 791.994 84.9162C791.784 85.0412 791.619 85.2102 791.5 85.4233C791.381 85.6335 791.32 85.8679 791.317 86.1264V87.196C791.317 87.5199 791.376 87.7997 791.496 88.0355C791.618 88.2713 791.79 88.4531 792.011 88.581C792.233 88.7088 792.496 88.7727 792.8 88.7727C793.001 88.7727 793.186 88.7443 793.354 88.6875C793.521 88.6307 793.665 88.5455 793.784 88.4318C793.903 88.3182 793.994 88.179 794.057 88.0142L795.736 88.125C795.651 88.5284 795.476 88.8807 795.212 89.1818C794.95 89.4801 794.612 89.7131 794.197 89.8807C793.786 90.0455 793.31 90.1278 792.77 90.1278ZM799.908 92.5909C799.32 92.5909 798.815 92.5099 798.395 92.348C797.977 92.1889 797.645 91.9716 797.398 91.696C797.151 91.4205 796.99 91.1108 796.916 90.767L798.595 90.5412C798.646 90.6719 798.727 90.794 798.838 90.9077C798.949 91.0213 799.095 91.1122 799.277 91.1804C799.462 91.2514 799.686 91.2869 799.95 91.2869C800.345 91.2869 800.67 91.1903 800.926 90.9972C801.185 90.8068 801.314 90.4872 801.314 90.0384V88.8409H801.237C801.158 89.0227 801.038 89.1946 800.879 89.3565C800.72 89.5185 800.516 89.6506 800.266 89.7528C800.016 89.8551 799.717 89.9062 799.371 89.9062C798.879 89.9062 798.432 89.7926 798.028 89.5653C797.628 89.3352 797.308 88.9844 797.07 88.5128C796.834 88.0384 796.716 87.4389 796.716 86.7145C796.716 85.973 796.837 85.3537 797.078 84.8565C797.32 84.3594 797.641 83.9872 798.041 83.7401C798.445 83.4929 798.886 83.3693 799.366 83.3693C799.733 83.3693 800.04 83.4318 800.287 83.5568C800.534 83.679 800.733 83.8324 800.884 84.017C801.037 84.1989 801.155 84.3778 801.237 84.554H801.305V83.4545H803.108V90.0639C803.108 90.6207 802.972 91.0866 802.699 91.4616C802.426 91.8366 802.048 92.1179 801.565 92.3054C801.085 92.4957 800.533 92.5909 799.908 92.5909ZM799.946 88.5426C800.239 88.5426 800.486 88.4702 800.688 88.3253C800.892 88.1776 801.048 87.9673 801.156 87.6946C801.267 87.419 801.322 87.0895 801.322 86.706C801.322 86.3224 801.268 85.9901 801.161 85.7088C801.053 85.4247 800.896 85.2045 800.692 85.0483C800.487 84.892 800.239 84.8139 799.946 84.8139C799.648 84.8139 799.396 84.8949 799.192 85.0568C798.987 85.2159 798.832 85.4375 798.727 85.7216C798.622 86.0057 798.57 86.3338 798.57 86.706C798.57 87.0838 798.622 87.4105 798.727 87.6861C798.835 87.9588 798.99 88.1705 799.192 88.321C799.396 88.4687 799.648 88.5426 799.946 88.5426ZM804.553 90V83.4545H806.283V84.6094H806.359C806.496 84.2259 806.723 83.9233 807.041 83.7017C807.359 83.4801 807.74 83.3693 808.183 83.3693C808.632 83.3693 809.014 83.4815 809.33 83.706C809.645 83.9276 809.855 84.2287 809.96 84.6094H810.028C810.162 84.2344 810.403 83.9347 810.753 83.7102C811.105 83.483 811.521 83.3693 812.001 83.3693C812.612 83.3693 813.108 83.5639 813.489 83.9531C813.872 84.3395 814.064 84.8878 814.064 85.598V90H812.253V85.956C812.253 85.5923 812.156 85.3196 811.963 85.1378C811.77 84.956 811.528 84.8651 811.239 84.8651C810.909 84.8651 810.652 84.9702 810.467 85.1804C810.283 85.3878 810.19 85.6619 810.19 86.0028V90H808.43V85.9176C808.43 85.5966 808.338 85.3409 808.153 85.1506C807.972 84.9602 807.732 84.8651 807.433 84.8651C807.232 84.8651 807.05 84.9162 806.888 85.0185C806.729 85.1179 806.602 85.2585 806.509 85.4403C806.415 85.6193 806.368 85.8295 806.368 86.071V90H804.553ZM818.481 90.1278C817.808 90.1278 817.228 89.9915 816.742 89.7188C816.259 89.4432 815.887 89.054 815.626 88.5511C815.364 88.0455 815.234 87.4474 815.234 86.7571C815.234 86.0838 815.364 85.4929 815.626 84.9844C815.887 84.4759 816.255 84.0795 816.729 83.7955C817.207 83.5114 817.766 83.3693 818.408 83.3693C818.84 83.3693 819.242 83.4389 819.614 83.5781C819.989 83.7145 820.316 83.9205 820.594 84.196C820.876 84.4716 821.094 84.8182 821.251 85.2358C821.407 85.6506 821.485 86.1364 821.485 86.6932V87.1918H815.958V86.0668H819.776C819.776 85.8054 819.719 85.5739 819.606 85.3722C819.492 85.1705 819.335 85.0128 819.133 84.8991C818.934 84.7827 818.702 84.7244 818.438 84.7244C818.163 84.7244 817.918 84.7884 817.705 84.9162C817.495 85.0412 817.33 85.2102 817.211 85.4233C817.092 85.6335 817.031 85.8679 817.028 86.1264V87.196C817.028 87.5199 817.087 87.7997 817.207 88.0355C817.329 88.2713 817.501 88.4531 817.722 88.581C817.944 88.7088 818.207 88.7727 818.511 88.7727C818.712 88.7727 818.897 88.7443 819.065 88.6875C819.232 88.6307 819.376 88.5455 819.495 88.4318C819.614 88.3182 819.705 88.179 819.768 88.0142L821.447 88.125C821.362 88.5284 821.187 88.8807 820.923 89.1818C820.661 89.4801 820.323 89.7131 819.908 89.8807C819.496 90.0455 819.021 90.1278 818.481 90.1278ZM824.485 86.2159V90H822.67V83.4545H824.4V84.6094H824.477C824.621 84.2287 824.864 83.9276 825.205 83.706C825.546 83.4815 825.96 83.3693 826.445 83.3693C826.9 83.3693 827.296 83.4688 827.634 83.6676C827.972 83.8665 828.235 84.1506 828.423 84.5199C828.61 84.8864 828.704 85.3239 828.704 85.8324V90H826.888V86.1562C826.891 85.7557 826.789 85.4432 826.582 85.2188C826.374 84.9915 826.089 84.8778 825.725 84.8778C825.481 84.8778 825.265 84.9304 825.077 85.0355C824.893 85.1406 824.748 85.294 824.643 85.4957C824.54 85.6946 824.488 85.9347 824.485 86.2159ZM833.616 83.4545V84.8182H829.674V83.4545H833.616ZM830.569 81.8864H832.385V87.9886C832.385 88.1562 832.41 88.2869 832.461 88.3807C832.512 88.4716 832.583 88.5355 832.674 88.5724C832.768 88.6094 832.876 88.6278 832.998 88.6278C833.083 88.6278 833.169 88.6207 833.254 88.6065C833.339 88.5895 833.404 88.5767 833.45 88.5682L833.735 89.919C833.645 89.9474 833.517 89.9801 833.352 90.017C833.187 90.0568 832.987 90.081 832.751 90.0895C832.314 90.1065 831.93 90.0483 831.6 89.9148C831.274 89.7812 831.02 89.5739 830.838 89.2926C830.656 89.0114 830.566 88.6562 830.569 88.2273V81.8864Z" fill="black"/>
<defs>
<filter id="filter0_d_1_2" x="1" y="10" width="887" height="51" filterUnits="userSpaceOnUse" color-interpolation-filters="sRGB">
<feFlood flood-opacity="0" result="BackgroundImageFix"/>
<feColorMatrix in="SourceAlpha" type="matrix" values="0 0 0 0 0 0 0 0 0 0 0 0 0 0 0 0 0 0 127 0" result="hardAlpha"/>
<feOffset dy="4"/>
<feGaussianBlur stdDeviation="2"/>
<feComposite in2="hardAlpha" operator="out"/>
<feColorMatrix type="matrix" values="0 0 0 0 0 0 0 0 0 0 0 0 0 0 0 0 0 0 0.25 0"/>
<feBlend mode="normal" in2="BackgroundImageFix" result="effect1_dropShadow_1_2"/>
<feBlend mode="normal" in="SourceGraphic" in2="effect1_dropShadow_1_2" result="shape"/>
</filter>
<filter id="filter1_d_1_2" x="1" y="128" width="402" height="422" filterUnits="userSpaceOnUse" color-interpolation-filters="sRGB">
<feFlood flood-opacity="0" result="BackgroundImageFix"/>
<feColorMatrix in="SourceAlpha" type="matrix" values="0 0 0 0 0 0 0 0 0 0 0 0 0 0 0 0 0 0 127 0" result="hardAlpha"/>
<feOffset dy="4"/>
<feGaussianBlur stdDeviation="2"/>
<feComposite in2="hardAlpha" operator="out"/>
<feColorMatrix type="matrix" values="0 0 0 0 0 0 0 0 0 0 0 0 0 0 0 0 0 0 0.25 0"/>
<feBlend mode="normal" in2="BackgroundImageFix" result="effect1_dropShadow_1_2"/>
<feBlend mode="normal" in="SourceGraphic" in2="effect1_dropShadow_1_2" result="shape"/>
</filter>
<linearGradient id="paint0_linear_1_2" x1="436.789" y1="30.0506" x2="436.789" y2="48.7322" gradientUnits="userSpaceOnUse">
<stop stop-color="#6ADC42"/>
<stop offset="0.489583" stop-color="#72E717" stop-opacity="0.65"/>
</linearGradient>
<linearGradient id="paint1_linear_1_2" x1="198.544" y1="321.045" x2="198.544" y2="500.91" gradientUnits="userSpaceOnUse">
<stop stop-color="#6ADC42"/>
<stop offset="0.489583" stop-color="#72E717" stop-opacity="0.65"/>
</linearGradient>
</defs>
</svg>
